<?xml version="1.0" encoding="utf-8"?>
<!-- Generator: Adobe Illustrator 23.0.4, SVG Export Plug-In . SVG Version: 6.00 Build 0)  -->
<svg version="1.1" id="Layer_1" xmlns="http://www.w3.org/2000/svg" xmlns:xlink="http://www.w3.org/1999/xlink" x="0px" y="0px"
	 viewBox="0 0 585 783" style="enable-background:new 0 0 585 783;" xml:space="preserve">
<style type="text/css">
	.st0{clip-path:url(#SVGID_2_);fill:#362018;}
	.st1{clip-path:url(#SVGID_2_);}
	.st2{clip-path:url(#SVGID_4_);}
	.st3{fill:#FFFFFF;}
	.st4{font-family:'MetaPlusBold-Italic';}
	.st5{font-size:4.5px;}
	.st6{font-family:'SimonciniGaramond';}
	.st7{font-size:9px;}
	.st8{fill:#AA902F;}
	.st9{font-size:8px;}
	.st10{letter-spacing:1;}
	.st11{clip-path:url(#SVGID_2_);fill:#FFF22D;}
	.st12{clip-path:url(#SVGID_6_);}
	.st13{fill:#CC2229;}
	.st14{font-size:36.298px;}
	.st15{font-family:'MetaPlusBold-Caps';}
	.st16{font-size:7px;}
	.st17{font-family:'MetaPlusBlack-Roman';}
	.st18{font-size:6px;}
	.st19{clip-path:url(#SVGID_10_);}
	.st20{clip-path:url(#SVGID_12_);}
	.st21{clip-path:url(#SVGID_16_);fill:#4C4731;}
	.st22{clip-path:url(#SVGID_16_);}
	.st23{clip-path:url(#SVGID_18_);}
	.st24{clip-path:url(#SVGID_16_);fill:none;stroke:#FFFFFF;stroke-width:0.5;}
	.st25{clip-path:url(#SVGID_24_);}
	.st26{clip-path:url(#SVGID_26_);}
	.st27{clip-path:url(#SVGID_30_);}
	.st28{clip-path:url(#SVGID_32_);}
	.st29{clip-path:url(#SVGID_38_);fill:#362018;}
	.st30{clip-path:url(#SVGID_38_);}
	.st31{clip-path:url(#SVGID_40_);}
	.st32{clip-path:url(#SVGID_44_);}
	.st33{clip-path:url(#SVGID_38_);fill:none;stroke:#FFFFFF;stroke-width:0.5;}
	.st34{clip-path:url(#SVGID_48_);fill:#4C4731;}
	.st35{clip-path:url(#SVGID_48_);}
	.st36{clip-path:url(#SVGID_50_);}
	.st37{clip-path:url(#SVGID_54_);}
	.st38{clip-path:url(#SVGID_48_);fill:none;stroke:#FFFFFF;stroke-width:0.5;}
	.st39{clip-path:url(#SVGID_58_);}
	.st40{clip-path:url(#SVGID_60_);}
</style>
<g>
	<g>
		<defs>
			<rect id="SVGID_1_" width="585" height="783"/>
		</defs>
		<clipPath id="SVGID_2_">
			<use xlink:href="#SVGID_1_"  style="overflow:visible;"/>
		</clipPath>
		<rect class="st0" width="585" height="783"/>
		<g class="st1">
			<defs>
				<rect id="SVGID_3_" width="585" height="783"/>
			</defs>
			<clipPath id="SVGID_4_">
				<use xlink:href="#SVGID_3_"  style="overflow:visible;"/>
			</clipPath>
			<g class="st2">
				<text transform="matrix(-6.123234e-17 -1 1 -6.123234e-17 561.064 738.1104)"><tspan x="0" y="0" class="st3 st4 st5">C</tspan><tspan x="3" y="0" class="st3 st4 st5">OU</tspan><tspan x="10" y="0" class="st3 st4 st5">R</tspan><tspan x="12.8" y="0" class="st3 st4 st5">T</tspan><tspan x="15.5" y="0" class="st3 st4 st5">ESY OF</tspan><tspan x="31.6" y="0" class="st3 st4 st5"> </tspan><tspan x="32.9" y="0" class="st3 st4 st5">THE MOR</tspan><tspan x="53.9" y="0" class="st3 st4 st5">G</tspan><tspan x="57.3" y="0" class="st3 st4 st5">AN </tspan><tspan x="65.5" y="0" class="st3 st4 st5">L</tspan><tspan x="68.1" y="0" class="st3 st4 st5">IBRA</tspan><tspan x="78.7" y="0" class="st3 st4 st5">R</tspan><tspan x="81.5" y="0" class="st3 st4 st5">Y</tspan></text>
			</g>
		</g>
		<g class="st1">
			<text transform="matrix(1 0 0 1 143.5 678.1104)"><tspan x="0" y="0" class="st3 st6 st7">I</tspan><tspan x="2.3" y="0" class="st3 st6 st7">T</tspan><tspan x="7" y="0" class="st3 st6 st7"> </tspan><tspan x="9.1" y="0" class="st3 st6 st7">W</tspan><tspan x="15.9" y="0" class="st3 st6 st7">A</tspan><tspan x="21.6" y="0" class="st3 st6 st7">S</tspan><tspan x="26.2" y="0" class="st3 st6 st7"> </tspan><tspan x="28.3" y="0" class="st3 st6 st7">A</tspan><tspan x="34" y="0" class="st3 st6 st7"> </tspan><tspan x="36.2" y="0" class="st3 st6 st7">B</tspan><tspan x="41.2" y="0" class="st3 st6 st7">I</tspan><tspan x="43.6" y="0" class="st3 st6 st7">BL</tspan><tspan x="53" y="0" class="st3 st6 st7">I</tspan><tspan x="55.4" y="0" class="st3 st6 st7">O</tspan><tspan x="61.7" y="0" class="st3 st6 st7">P</tspan><tspan x="66.7" y="0" class="st3 st6 st7">HIL</tspan><tspan x="79.5" y="0" class="st3 st6 st7">E</tspan><tspan x="84.1" y="0" class="st3 st6 st7">’</tspan><tspan x="86.1" y="0" class="st3 st6 st7">S</tspan></text>
		</g>
		<g class="st1">
			<text transform="matrix(1 0 0 1 254.7236 678.1104)" class="st8 st6 st9"> </text>
		</g>
		<g class="st1">
			<text transform="matrix(1 0 0 1 256.9355 678.1104)"><tspan x="0" y="0" class="st3 st6 st7">dr</tspan><tspan x="8.4" y="0" class="st3 st6 st7">eam</tspan><tspan x="25.3" y="0" class="st3 st6 st7">.</tspan><tspan x="27.3" y="0" class="st3 st6 st7"> </tspan><tspan x="29.4" y="0" class="st3 st6 st7">I</tspan><tspan x="31.8" y="0" class="st3 st6 st7"> </tspan><tspan x="33.9" y="0" class="st3 st6 st7">h</tspan><tspan x="39.1" y="0" class="st3 st6 st7">a</tspan><tspan x="43.6" y="0" class="st3 st6 st7">d</tspan><tspan x="48.8" y="0" class="st3 st6 st7"> </tspan><tspan x="51" y="0" class="st3 st6 st7">b</tspan><tspan x="56.3" y="0" class="st3 st6 st7">ee</tspan><tspan x="65.6" y="0" class="st3 st6 st7">n</tspan><tspan x="70.8" y="0" class="st3 st6 st7"> </tspan><tspan x="72.9" y="0" class="st3 st6 st7">i</tspan><tspan x="75.2" y="0" class="st3 st6 st7">n</tspan><tspan x="80.4" y="0" class="st3 st6 st7">vited</tspan><tspan x="100.3" y="0" class="st3 st6 st7"> </tspan><tspan x="102.4" y="0" class="st3 st6 st7">t</tspan><tspan x="105.6" y="0" class="st3 st6 st7">o</tspan><tspan x="110.7" y="0" class="st3 st6 st7"> </tspan><tspan x="112.8" y="0" class="st3 st6 st7">a</tspan><tspan x="117.4" y="0" class="st3 st6 st7"> </tspan><tspan x="119.5" y="0" class="st3 st6 st7">b</tspan><tspan x="124.8" y="0" class="st3 st6 st7">ook</tspan><tspan x="139.4" y="0" class="st3 st6 st7"> </tspan><tspan x="141.6" y="0" class="st3 st6 st7">part</tspan><tspan x="157.7" y="0" class="st3 st6 st7">y</tspan><tspan x="161.3" y="0" class="st3 st6 st7">,</tspan><tspan x="163.3" y="0" class="st3 st6 st7"> </tspan><tspan x="165.4" y="0" class="st3 st6 st7">o</tspan><tspan x="170.6" y="0" class="st3 st6 st7">r </tspan></text>
		</g>
		<g class="st1">
			<text transform="matrix(1 0 0 1 143.5 690.1104)"><tspan x="0" y="0" class="st3 st6 st7">r</tspan><tspan x="3.1" y="0" class="st3 st6 st7">at</tspan><tspan x="10.8" y="0" class="st3 st6 st7">h</tspan><tspan x="16" y="0" class="st3 st6 st7">e</tspan><tspan x="20.6" y="0" class="st3 st6 st7">r</tspan><tspan x="23.1" y="0" class="st3 st6 st7">,</tspan><tspan x="25.1" y="0" class="st3 st6 st7"> </tspan><tspan x="27.5" y="0" class="st3 st6 st7">a</tspan><tspan x="32.1" y="0" class="st3 st6 st7"> </tspan><tspan x="34.4" y="0" class="st3 st6 st7">d</tspan><tspan x="39.7" y="0" class="st3 st6 st7">i</tspan><tspan x="42" y="0" class="st3 st6 st7">n</tspan><tspan x="47.1" y="0" class="st3 st6 st7">ner</tspan><tspan x="60.1" y="0" class="st3 st6 st7"> </tspan><tspan x="62.5" y="0" class="st3 st6 st7">p</tspan><tspan x="67.8" y="0" class="st3 st6 st7">arty</tspan><tspan x="83" y="0" class="st3 st6 st7"> </tspan><tspan x="85.4" y="0" class="st3 st6 st7">to</tspan><tspan x="93.7" y="0" class="st3 st6 st7"> </tspan><tspan x="96.1" y="0" class="st3 st6 st7">cele</tspan><tspan x="112" y="0" class="st3 st6 st7">b</tspan><tspan x="117.3" y="0" class="st3 st6 st7">rate</tspan><tspan x="132.8" y="0" class="st3 st6 st7"> </tspan><tspan x="135.1" y="0" class="st3 st6 st7">a</tspan><tspan x="139.7" y="0" class="st3 st6 st7"> </tspan><tspan x="142.1" y="0" class="st3 st6 st7">b</tspan><tspan x="147.3" y="0" class="st3 st6 st7">ook</tspan><tspan x="162" y="0" class="st3 st6 st7"> </tspan><tspan x="164.4" y="0" class="st3 st6 st7">(</tspan><tspan x="167.1" y="0" class="st3 st6 st7">t</tspan><tspan x="170.3" y="0" class="st3 st6 st7">h</tspan><tspan x="175.4" y="0" class="st3 st6 st7">e</tspan><tspan x="180.1" y="0" class="st3 st6 st7"> </tspan><tspan x="182.5" y="0" class="st3 st6 st7">d</tspan><tspan x="187.8" y="0" class="st3 st6 st7">iffere</tspan><tspan x="208" y="0" class="st3 st6 st7">n</tspan><tspan x="213.1" y="0" class="st3 st6 st7">ce</tspan><tspan x="222" y="0" class="st3 st6 st7"> </tspan><tspan x="224.4" y="0" class="st3 st6 st7">be</tspan><tspan x="234.4" y="0" class="st3 st6 st7">in</tspan><tspan x="241.9" y="0" class="st3 st6 st7">g</tspan><tspan x="247.1" y="0" class="st3 st6 st7"> </tspan><tspan x="249.5" y="0" class="st3 st6 st7">that</tspan><tspan x="265.5" y="0" class="st3 st6 st7"> </tspan><tspan x="267.9" y="0" class="st3 st6 st7">at</tspan><tspan x="275.5" y="0" class="st3 st6 st7"> </tspan><tspan x="277.9" y="0" class="st3 st6 st7">t</tspan><tspan x="281.1" y="0" class="st3 st6 st7">h</tspan><tspan x="286.3" y="0" class="st3 st6 st7">e </tspan></text>
		</g>
		<g class="st1">
			<text transform="matrix(1 0 0 1 143.5 702.1104)"><tspan x="0" y="0" class="st3 st6 st7">ﬁr</tspan><tspan x="8" y="0" class="st3 st6 st7">s</tspan><tspan x="11.7" y="0" class="st3 st6 st7">t</tspan><tspan x="14.9" y="0" class="st3 st6 st7"> </tspan><tspan x="17.6" y="0" class="st3 st6 st7">o</tspan><tspan x="22.7" y="0" class="st3 st6 st7">ne</tspan><tspan x="32.6" y="0" class="st3 st6 st7"> </tspan><tspan x="35.2" y="0" class="st3 st6 st7">y</tspan><tspan x="39.6" y="0" class="st3 st6 st7">o</tspan><tspan x="44.8" y="0" class="st3 st6 st7">u</tspan><tspan x="49.9" y="0" class="st3 st6 st7"> </tspan><tspan x="52.6" y="0" class="st3 st6 st7">m</tspan><tspan x="60.3" y="0" class="st3 st6 st7">i</tspan><tspan x="62.5" y="0" class="st3 st6 st7">ll</tspan><tspan x="67.1" y="0" class="st3 st6 st7"> </tspan><tspan x="69.8" y="0" class="st3 st6 st7">ar</tspan><tspan x="77.5" y="0" class="st3 st6 st7">o</tspan><tspan x="82.6" y="0" class="st3 st6 st7">u</tspan><tspan x="87.7" y="0" class="st3 st6 st7">n</tspan><tspan x="92.9" y="0" class="st3 st6 st7">d</tspan><tspan x="98.1" y="0" class="st3 st6 st7"> </tspan><tspan x="100.8" y="0" class="st3 st6 st7">tryi</tspan><tspan x="113.8" y="0" class="st3 st6 st7">n</tspan><tspan x="119" y="0" class="st3 st6 st7">g</tspan><tspan x="124.2" y="0" class="st3 st6 st7"> </tspan><tspan x="126.8" y="0" class="st3 st6 st7">t</tspan><tspan x="130" y="0" class="st3 st6 st7">o</tspan><tspan x="135.1" y="0" class="st3 st6 st7"> </tspan><tspan x="137.8" y="0" class="st3 st6 st7">n</tspan><tspan x="142.9" y="0" class="st3 st6 st7">a</tspan><tspan x="147.5" y="0" class="st3 st6 st7">b</tspan><tspan x="152.8" y="0" class="st3 st6 st7"> </tspan><tspan x="155.4" y="0" class="st3 st6 st7">p</tspan><tspan x="160.7" y="0" class="st3 st6 st7">ass</tspan><tspan x="172.7" y="0" class="st3 st6 st7">in</tspan><tspan x="180.2" y="0" class="st3 st6 st7">g</tspan><tspan x="185.4" y="0" class="st3 st6 st7"> </tspan><tspan x="188.1" y="0" class="st3 st6 st7">cana</tspan><tspan x="206.5" y="0" class="st3 st6 st7">p</tspan><tspan x="211.8" y="0" class="st3 st6 st7">é</tspan><tspan x="216.5" y="0" class="st3 st6 st7">s,</tspan><tspan x="222.2" y="0" class="st3 st6 st7"> </tspan><tspan x="224.9" y="0" class="st3 st6 st7">w</tspan><tspan x="231.7" y="0" class="st3 st6 st7">h</tspan><tspan x="236.9" y="0" class="st3 st6 st7">e</tspan><tspan x="241.6" y="0" class="st3 st6 st7">r</tspan><tspan x="244.7" y="0" class="st3 st6 st7">eas</tspan><tspan x="257.6" y="0" class="st3 st6 st7"> </tspan><tspan x="260.3" y="0" class="st3 st6 st7">t</tspan><tspan x="263.5" y="0" class="st3 st6 st7">h</tspan><tspan x="268.6" y="0" class="st3 st6 st7">i</tspan><tspan x="270.9" y="0" class="st3 st6 st7">s</tspan><tspan x="274.6" y="0" class="st3 st6 st7"> </tspan><tspan x="277.3" y="0" class="st3 st6 st7">wa</tspan><tspan x="288.6" y="0" class="st3 st6 st7">s </tspan></text>
		</g>
		<g class="st1">
			<text transform="matrix(1 0 0 1 143.5 714.1104)"><tspan x="0" y="0" class="st3 st6 st7">a</tspan><tspan x="4.5" y="0" class="st3 st6 st7"> </tspan><tspan x="7.2" y="0" class="st3 st6 st7">s</tspan><tspan x="11" y="0" class="st3 st6 st7">it-</tspan><tspan x="19.4" y="0" class="st3 st6 st7">d</tspan><tspan x="24.6" y="0" class="st3 st6 st7">o</tspan><tspan x="29.7" y="0" class="st3 st6 st7">w</tspan><tspan x="36.5" y="0" class="st3 st6 st7">n</tspan><tspan x="41.7" y="0" class="st3 st6 st7">,</tspan><tspan x="43.7" y="0" class="st3 st6 st7"> </tspan><tspan x="46.4" y="0" class="st3 st6 st7">m</tspan><tspan x="54.1" y="0" class="st3 st6 st7">u</tspan><tspan x="59.3" y="0" class="st3 st6 st7">lti-c</tspan><tspan x="74.2" y="0" class="st3 st6 st7">o</tspan><tspan x="79.3" y="0" class="st3 st6 st7">urse</tspan><tspan x="96" y="0" class="st3 st6 st7"> </tspan><tspan x="98.7" y="0" class="st3 st6 st7">affa</tspan><tspan x="113.1" y="0" class="st3 st6 st7">ir</tspan><tspan x="118.5" y="0" class="st3 st6 st7">)</tspan><tspan x="121.3" y="0" class="st3 st6 st7"> </tspan><tspan x="124" y="0" class="st3 st6 st7">at</tspan><tspan x="131.7" y="0" class="st3 st6 st7"> </tspan><tspan x="134.4" y="0" class="st3 st6 st7">t</tspan><tspan x="137.5" y="0" class="st3 st6 st7">h</tspan><tspan x="142.7" y="0" class="st3 st6 st7">e</tspan><tspan x="147.4" y="0" class="st3 st6 st7"> </tspan><tspan x="150.1" y="0" class="st3 st6 st7">M</tspan><tspan x="157.5" y="0" class="st3 st6 st7">o</tspan><tspan x="162.6" y="0" class="st3 st6 st7">r</tspan><tspan x="165.7" y="0" class="st3 st6 st7">ga</tspan><tspan x="175.5" y="0" class="st3 st6 st7">n</tspan><tspan x="180.6" y="0" class="st3 st6 st7"> </tspan><tspan x="183.3" y="0" class="st3 st6 st7">Li</tspan><tspan x="190" y="0" class="st3 st6 st7">br</tspan><tspan x="198.4" y="0" class="st3 st6 st7">a</tspan><tspan x="203" y="0" class="st3 st6 st7">r</tspan><tspan x="206.1" y="0" class="st3 st6 st7">y</tspan><tspan x="209.7" y="0" class="st3 st6 st7">,</tspan><tspan x="211.7" y="0" class="st3 st6 st7"> </tspan><tspan x="214.4" y="0" class="st3 st6 st7">i</tspan><tspan x="216.7" y="0" class="st3 st6 st7">n</tspan><tspan x="221.9" y="0" class="st3 st6 st7">si</tspan><tspan x="227.9" y="0" class="st3 st6 st7">d</tspan><tspan x="233.2" y="0" class="st3 st6 st7">e</tspan><tspan x="237.8" y="0" class="st3 st6 st7"> </tspan><tspan x="240.5" y="0" class="st3 st6 st7">the</tspan><tspan x="253.6" y="0" class="st3 st6 st7"> </tspan><tspan x="256.3" y="0" class="st3 st6 st7">M</tspan><tspan x="263.7" y="0" class="st3 st6 st7">cK</tspan><tspan x="273" y="0" class="st3 st6 st7">i</tspan><tspan x="275.2" y="0" class="st3 st6 st7">m </tspan></text>
		</g>
		<g class="st1">
			<text transform="matrix(1 0 0 1 143.5 726.1104)"><tspan x="0" y="0" class="st3 st6 st7">b</tspan><tspan x="5.3" y="0" class="st3 st6 st7">u</tspan><tspan x="10.4" y="0" class="st3 st6 st7">i</tspan><tspan x="12.7" y="0" class="st3 st6 st7">l</tspan><tspan x="15" y="0" class="st3 st6 st7">d</tspan><tspan x="20.3" y="0" class="st3 st6 st7">i</tspan><tspan x="22.5" y="0" class="st3 st6 st7">n</tspan><tspan x="27.7" y="0" class="st3 st6 st7">g</tspan><tspan x="32.9" y="0" class="st3 st6 st7">.</tspan><tspan x="35" y="0" class="st3 st6 st7 st10"> </tspan><tspan x="38.1" y="0" class="st3 st6 st7">A</tspan><tspan x="43.7" y="0" class="st3 st6 st7">ny</tspan><tspan x="53.3" y="0" class="st3 st6 st7">o</tspan><tspan x="58.4" y="0" class="st3 st6 st7">ne</tspan><tspan x="68.3" y="0" class="st3 st6 st7 st10"> </tspan><tspan x="71.4" y="0" class="st3 st6 st7">d</tspan><tspan x="76.7" y="0" class="st3 st6 st7">i</tspan><tspan x="78.9" y="0" class="st3 st6 st7">n</tspan><tspan x="84.1" y="0" class="st3 st6 st7">ing</tspan><tspan x="96.8" y="0" class="st3 st6 st7 st10"> </tspan><tspan x="99.9" y="0" class="st3 st6 st7">i</tspan><tspan x="102.2" y="0" class="st3 st6 st7">n</tspan><tspan x="107.3" y="0" class="st3 st6 st7 st10"> </tspan><tspan x="110.4" y="0" class="st3 st6 st7">thi</tspan><tspan x="121" y="0" class="st3 st6 st7">s</tspan><tspan x="124.8" y="0" class="st3 st6 st7 st10"> </tspan><tspan x="127.9" y="0" class="st3 st6 st7">gol</tspan><tspan x="140.5" y="0" class="st3 st6 st7">d</tspan><tspan x="145.8" y="0" class="st3 st6 st7">en</tspan><tspan x="155.6" y="0" class="st3 st6 st7 st10"> </tspan><tspan x="158.7" y="0" class="st3 st6 st7">p</tspan><tspan x="164" y="0" class="st3 st6 st7">alace</tspan><tspan x="184.3" y="0" class="st3 st6 st7 st10"> </tspan><tspan x="187.4" y="0" class="st3 st6 st7">of</tspan><tspan x="195.3" y="0" class="st3 st6 st7 st10"> </tspan><tspan x="198.4" y="0" class="st3 st6 st7">vol</tspan><tspan x="210.3" y="0" class="st3 st6 st7">u</tspan><tspan x="215.4" y="0" class="st3 st6 st7">mes</tspan><tspan x="231.6" y="0" class="st3 st6 st7">,</tspan><tspan x="233.6" y="0" class="st3 st6 st7 st10"> </tspan><tspan x="236.7" y="0" class="st3 st6 st7">thi</tspan><tspan x="247.3" y="0" class="st3 st6 st7">s</tspan><tspan x="251.1" y="0" class="st3 st6 st7 st10"> </tspan><tspan x="254.2" y="0" class="st3 st6 st7">glitter</tspan><tspan x="278.1" y="0" class="st3 st6 st7">i</tspan><tspan x="280.4" y="0" class="st3 st6 st7">n</tspan><tspan x="285.5" y="0" class="st3 st6 st7">g </tspan></text>
		</g>
		<g class="st1">
			<text transform="matrix(1 0 0 1 143.5 738.1104)"><tspan x="0" y="0" class="st3 st6 st7">enclave</tspan><tspan x="30.1" y="0" class="st3 st6 st7"> </tspan><tspan x="31.8" y="0" class="st3 st6 st7">o</tspan><tspan x="36.9" y="0" class="st3 st6 st7">f</tspan><tspan x="39.8" y="0" class="st3 st6 st7"> </tspan><tspan x="41.5" y="0" class="st3 st6 st7">t</tspan><tspan x="44.6" y="0" class="st3 st6 st7">o</tspan><tspan x="49.8" y="0" class="st3 st6 st7">me</tspan><tspan x="62.1" y="0" class="st3 st6 st7">s</tspan><tspan x="65.9" y="0" class="st3 st6 st7">,</tspan><tspan x="67.9" y="0" class="st3 st6 st7"> </tspan><tspan x="69.6" y="0" class="st3 st6 st7">thi</tspan><tspan x="80.3" y="0" class="st3 st6 st7">s…</tspan><tspan x="93.2" y="0" class="st3 st6 st7">we</tspan><tspan x="104.7" y="0" class="st3 st6 st7">l</tspan><tspan x="106.9" y="0" class="st3 st6 st7">l,</tspan><tspan x="111.3" y="0" class="st3 st6 st7"> </tspan><tspan x="113" y="0" class="st3 st6 st7">thi</tspan><tspan x="123.6" y="0" class="st3 st6 st7">s</tspan><tspan x="127.4" y="0" class="st3 st6 st7"> </tspan><tspan x="129.1" y="0" class="st3 st6 st7">gia</tspan><tspan x="141.1" y="0" class="st3 st6 st7">n</tspan><tspan x="146.3" y="0" class="st3 st6 st7">t</tspan><tspan x="149.5" y="0" class="st3 st6 st7"> </tspan><tspan x="151.2" y="0" class="st3 st6 st7">r</tspan><tspan x="154.3" y="0" class="st3 st6 st7">o</tspan><tspan x="159.4" y="0" class="st3 st6 st7">o</tspan><tspan x="164.5" y="0" class="st3 st6 st7">m</tspan><tspan x="172.2" y="0" class="st3 st6 st7"> </tspan><tspan x="174" y="0" class="st3 st6 st7">p</tspan><tspan x="179.2" y="0" class="st3 st6 st7">acked</tspan><tspan x="202.3" y="0" class="st3 st6 st7"> </tspan><tspan x="204.1" y="0" class="st3 st6 st7">with</tspan><tspan x="221.5" y="0" class="st3 st6 st7"> </tspan><tspan x="223.2" y="0" class="st3 st6 st7">b</tspan><tspan x="228.5" y="0" class="st3 st6 st7">o</tspan><tspan x="233.6" y="0" class="st3 st6 st7">o</tspan><tspan x="238.7" y="0" class="st3 st6 st7">k</tspan><tspan x="243.1" y="0" class="st3 st6 st7">s,</tspan><tspan x="248.9" y="0" class="st3 st6 st7"> </tspan><tspan x="250.6" y="0" class="st3 st6 st7">b</tspan><tspan x="255.9" y="0" class="st3 st6 st7">asica</tspan><tspan x="275.2" y="0" class="st3 st6 st7">l</tspan><tspan x="277.5" y="0" class="st3 st6 st7">l</tspan><tspan x="279.8" y="0" class="st3 st6 st7">y</tspan><tspan x="283.4" y="0" class="st3 st6 st7">..</tspan><tspan x="287.5" y="0" class="st3 st6 st7">.</tspan></text>
		</g>
		<rect x="96.5" y="108" class="st11" width="383.1" height="402.1"/>
		<g class="st1">
			<defs>
				<rect id="SVGID_5_" x="96.5" y="108.3" width="383.1" height="401.8"/>
			</defs>
			<clipPath id="SVGID_6_">
				<use xlink:href="#SVGID_5_"  style="overflow:visible;"/>
			</clipPath>
			<g class="st12">
				<defs>
					<rect id="SVGID_7_" x="94.9" y="108.3" width="386.5" height="403"/>
				</defs>
				<clipPath id="SVGID_8_">
					<use xlink:href="#SVGID_7_"  style="overflow:visible;"/>
				</clipPath>
				<g style="clip-path:url(#SVGID_8_);">
					
						<image style="overflow:visible;" width="421" height="439" xlink:href="D2D31FDD1A90A507.jpg"  transform="matrix(0.918 0 0 0.918 94.9127 108.3)">
					</image>
				</g>
			</g>
		</g>
		<g class="st1">
			<text transform="matrix(1 0 0 1 132.0508 566.9395)"><tspan x="0" y="0" class="st13 st6 st14">D</tspan><tspan x="23.8" y="0" class="st13 st6 st14 st10">E</tspan><tspan x="42.8" y="0" class="st13 st6 st14">LIG</tspan><tspan x="91.1" y="0" class="st13 st6 st14">HT</tspan><tspan x="133.5" y="0" class="st13 st6 st14"> I</tspan><tspan x="150.5" y="0" class="st13 st6 st14">N</tspan><tspan x="174.8" y="0" class="st13 st6 st14"> </tspan></text>
		</g>
		<g class="st1">
			<text transform="matrix(1 0 0 1 365.7354 566.9395)"><tspan x="0" y="0" class="st13 st6 st14">T</tspan><tspan x="18.4" y="0" class="st13 st6 st14">H</tspan><tspan x="42.4" y="0" class="st13 st6 st14">E </tspan></text>
		</g>
		<g class="st1">
			<text transform="matrix(1 0 0 1 206.1709 605.6396)"><tspan x="0" y="0" class="st13 st6 st14 st10">E</tspan><tspan x="18.9" y="0" class="st13 st6 st14">R</tspan><tspan x="38.1" y="0" class="st13 st6 st14">U</tspan><tspan x="62" y="0" class="st13 st6 st14">D</tspan><tspan x="85.8" y="0" class="st13 st6 st14">IT</tspan><tspan x="113.2" y="0" class="st13 st6 st14">E</tspan></text>
		</g>
		<g class="st1">
			<text transform="matrix(1 0 0 1 237.2178 642.1104)"><tspan x="0" y="0" class="st3 st15 st7 st10">B</tspan><tspan x="6.6" y="0" class="st3 st15 st7 st10">Y LI</tspan><tspan x="27" y="0" class="st3 st15 st7 st10">L</tspan><tspan x="32.3" y="0" class="st3 st15 st7 st10">Y H</tspan><tspan x="50.3" y="0" class="st3 st15 st7 st10">O</tspan><tspan x="58.3" y="0" class="st3 st15 st7 st10">A</tspan><tspan x="65.6" y="0" class="st3 st15 st7 st10">G</tspan><tspan x="73.2" y="0" class="st3 st15 st7 st10">L</tspan><tspan x="79.4" y="0" class="st3 st15 st7 st10">AN</tspan><tspan x="94.4" y="0" class="st3 st15 st7">D</tspan></text>
		</g>
		<g class="st1">
			<text transform="matrix(1 0 0 1 237.7598 120.1099)"><tspan x="0" y="0" class="st3 st4 st16">T</tspan><tspan x="3.6" y="0" class="st3 st4 st16">h</tspan><tspan x="7.6" y="0" class="st3 st4 st16">is pag</tspan><tspan x="25.6" y="0" class="st3 st4 st16">e</tspan><tspan x="29.3" y="0" class="st3 st4 st16">:</tspan><tspan x="30.9" y="0" class="st3 st4 st16"> </tspan><tspan x="32.3" y="0" class="st3 st4 st16">T</tspan><tspan x="36" y="0" class="st3 st4 st16">he</tspan><tspan x="43.6" y="0" class="st3 st4 st16"> Madis</tspan><tspan x="63.3" y="0" class="st3 st4 st16">o</tspan><tspan x="67.3" y="0" class="st3 st4 st16">n </tspan><tspan x="72.9" y="0" class="st3 st4 st16">A</tspan><tspan x="77.3" y="0" class="st3 st4 st16">v</tspan><tspan x="80.7" y="0" class="st3 st4 st16">en</tspan><tspan x="88.4" y="0" class="st3 st4 st16">u</tspan><tspan x="92.4" y="0" class="st3 st4 st16">e </tspan></text>
		</g>
		<g class="st1">
			<text transform="matrix(1 0 0 1 338.4951 120.1099)" class="st3 st4 st16"> </text>
		</g>
		<g class="st1">
			<text transform="matrix(1 0 0 1 221.5967 132.1099)"><tspan x="0" y="0" class="st3 st4 st16">ent</tspan><tspan x="9.9" y="0" class="st3 st4 st16">r</tspan><tspan x="12.2" y="0" class="st3 st4 st16">ance o</tspan><tspan x="31.9" y="0" class="st3 st4 st16">f</tspan><tspan x="34" y="0" class="st3 st4 st16"> </tspan><tspan x="35.5" y="0" class="st3 st4 st16">t</tspan><tspan x="37.9" y="0" class="st3 st4 st16">h</tspan><tspan x="41.9" y="0" class="st3 st4 st16">e</tspan><tspan x="45.4" y="0" class="st3 st4 st16"> Mo</tspan><tspan x="56.6" y="0" class="st3 st4 st16">r</tspan><tspan x="58.9" y="0" class="st3 st4 st16">gan Lib</tspan><tspan x="80.9" y="0" class="st3 st4 st16">r</tspan><tspan x="83.2" y="0" class="st3 st4 st16">a</tspan><tspan x="86.7" y="0" class="st3 st4 st16">r</tspan><tspan x="89.2" y="0" class="st3 st4 st16">y</tspan><tspan x="92.6" y="0" class="st3 st4 st16"> </tspan><tspan x="94.2" y="0" class="st3 st4 st16">&amp;</tspan><tspan x="98.5" y="0" class="st3 st4 st16"> M</tspan><tspan x="105.7" y="0" class="st3 st4 st16">u</tspan><tspan x="109.6" y="0" class="st3 st4 st16">se</tspan><tspan x="116.1" y="0" class="st3 st4 st16">u</tspan><tspan x="120" y="0" class="st3 st4 st16">m</tspan><tspan x="125.9" y="0" class="st3 st4 st16">, </tspan></text>
		</g>
		<g class="st1">
			<text transform="matrix(1 0 0 1 226.0293 144.1099)"><tspan x="0" y="0" class="st3 st4 st16">w</tspan><tspan x="5.3" y="0" class="st3 st4 st16">h</tspan><tspan x="9.3" y="0" class="st3 st4 st16">ic</tspan><tspan x="14.4" y="0" class="st3 st4 st16">h</tspan><tspan x="18.4" y="0" class="st3 st4 st16"> was </tspan><tspan x="33.3" y="0" class="st3 st4 st16">r</tspan><tspan x="35.7" y="0" class="st3 st4 st16">e</tspan><tspan x="39.3" y="0" class="st3 st4 st16">n</tspan><tspan x="43.4" y="0" class="st3 st4 st16">o</tspan><tspan x="47.2" y="0" class="st3 st4 st16">v</tspan><tspan x="50.6" y="0" class="st3 st4 st16">a</tspan><tspan x="54.1" y="0" class="st3 st4 st16">te</tspan><tspan x="60.2" y="0" class="st3 st4 st16">d b</tspan><tspan x="70" y="0" class="st3 st4 st16">y</tspan><tspan x="73.5" y="0" class="st3 st4 st16"> </tspan><tspan x="75.1" y="0" class="st3 st4 st16">R</tspan><tspan x="78.8" y="0" class="st3 st4 st16">e</tspan><tspan x="82.4" y="0" class="st3 st4 st16">n</tspan><tspan x="86.4" y="0" class="st3 st4 st16">z</tspan><tspan x="89.5" y="0" class="st3 st4 st16">o</tspan><tspan x="93.5" y="0" class="st3 st4 st16"> </tspan><tspan x="95.1" y="0" class="st3 st4 st16">P</tspan><tspan x="99" y="0" class="st3 st4 st16">ian</tspan><tspan x="108.3" y="0" class="st3 st4 st16">o</tspan><tspan x="112.3" y="0" class="st3 st4 st16"> i</tspan><tspan x="115.7" y="0" class="st3 st4 st16">n </tspan></text>
		</g>
		<g class="st1">
			<text transform="matrix(1 0 0 1 235.4883 156.1099)"><tspan x="0" y="0" class="st3 st4 st16">2006</tspan><tspan x="14.9" y="0" class="st3 st4 st16">.</tspan><tspan x="16.5" y="0" class="st3 st4 st16"> </tspan><tspan x="18.1" y="0" class="st3 st4 st16">O</tspan><tspan x="23.1" y="0" class="st3 st4 st16">pp</tspan><tspan x="31.3" y="0" class="st3 st4 st16">o</tspan><tspan x="35.3" y="0" class="st3 st4 st16">si</tspan><tspan x="40" y="0" class="st3 st4 st16">te</tspan><tspan x="46.1" y="0" class="st3 st4 st16"> pag</tspan><tspan x="59.4" y="0" class="st3 st4 st16">e</tspan><tspan x="63" y="0" class="st3 st4 st16">:</tspan><tspan x="64.6" y="0" class="st3 st4 st16"> </tspan><tspan x="66.1" y="0" class="st3 st4 st16">T</tspan><tspan x="69.7" y="0" class="st3 st4 st16">he</tspan><tspan x="77.4" y="0" class="st3 st4 st16"> McKi</tspan><tspan x="93.8" y="0" class="st3 st4 st16">m </tspan></text>
		</g>
		<g class="st1">
			<text transform="matrix(1 0 0 1 340.7666 156.1099)" class="st3 st4 st16"> </text>
		</g>
		<g class="st1">
			<text transform="matrix(1 0 0 1 221.1562 168.1099)"><tspan x="0" y="0" class="st3 st4 st16">bu</tspan><tspan x="8.1" y="0" class="st3 st4 st16">i</tspan><tspan x="9.9" y="0" class="st3 st4 st16">l</tspan><tspan x="11.7" y="0" class="st3 st4 st16">ding a</tspan><tspan x="30.8" y="0" class="st3 st4 st16">f</tspan><tspan x="32.9" y="0" class="st3 st4 st16">t</tspan><tspan x="35.4" y="0" class="st3 st4 st16">e</tspan><tspan x="39" y="0" class="st3 st4 st16">r i</tspan><tspan x="44.9" y="0" class="st3 st4 st16">t</tspan><tspan x="47.3" y="0" class="st3 st4 st16">s </tspan><tspan x="51.8" y="0" class="st3 st4 st16">o</tspan><tspan x="55.7" y="0" class="st3 st4 st16">wn </tspan><tspan x="66.7" y="0" class="st3 st4 st16">r</tspan><tspan x="69" y="0" class="st3 st4 st16">e</tspan><tspan x="72.7" y="0" class="st3 st4 st16">n</tspan><tspan x="76.7" y="0" class="st3 st4 st16">o</tspan><tspan x="80.6" y="0" class="st3 st4 st16">v</tspan><tspan x="83.9" y="0" class="st3 st4 st16">a</tspan><tspan x="87.4" y="0" class="st3 st4 st16">t</tspan><tspan x="89.9" y="0" class="st3 st4 st16">i</tspan><tspan x="91.7" y="0" class="st3 st4 st16">o</tspan><tspan x="95.6" y="0" class="st3 st4 st16">n</tspan><tspan x="99.7" y="0" class="st3 st4 st16">,</tspan><tspan x="101.2" y="0" class="st3 st4 st16"> </tspan><tspan x="102.9" y="0" class="st3 st4 st16">o</tspan><tspan x="106.8" y="0" class="st3 st4 st16">nce </tspan><tspan x="119.4" y="0" class="st3 st4 st16">t</tspan><tspan x="121.9" y="0" class="st3 st4 st16">h</tspan><tspan x="125.9" y="0" class="st3 st4 st16">e </tspan></text>
		</g>
		<g class="st1">
			<text transform="matrix(1 0 0 1 353.6914 168.1099)" class="st3 st4 st16"> </text>
		</g>
		<g class="st1">
			<text transform="matrix(1 0 0 1 228.8564 180.1099)"><tspan x="0" y="0" class="st3 st4 st16">pri</tspan><tspan x="8.5" y="0" class="st3 st4 st16">v</tspan><tspan x="12" y="0" class="st3 st4 st16">a</tspan><tspan x="15.6" y="0" class="st3 st4 st16">t</tspan><tspan x="18.1" y="0" class="st3 st4 st16">e study and lib</tspan><tspan x="63.9" y="0" class="st3 st4 st16">r</tspan><tspan x="66.3" y="0" class="st3 st4 st16">a</tspan><tspan x="69.9" y="0" class="st3 st4 st16">r</tspan><tspan x="72.6" y="0" class="st3 st4 st16">y o</tspan><tspan x="81.8" y="0" class="st3 st4 st16">f</tspan><tspan x="84.1" y="0" class="st3 st4 st16"> financi</tspan><tspan x="106.6" y="0" class="st3 st4 st16">e</tspan><tspan x="110.3" y="0" class="st3 st4 st16">r </tspan></text>
		</g>
		<g class="st1">
			<text transform="matrix(1 0 0 1 347.5391 180.1099)" class="st3 st4 st16"> </text>
		</g>
		<g class="st1">
			<text transform="matrix(1 0 0 1 241.627 192.1099)"><tspan x="0" y="0" class="st3 st4 st16">Pierpont Mo</tspan><tspan x="38.5" y="0" class="st3 st4 st16">r</tspan><tspan x="40.9" y="0" class="st3 st4 st16">gan</tspan><tspan x="52.7" y="0" class="st3 st4 st16">,</tspan><tspan x="54.3" y="0" class="st3 st4 st16"> is n</tspan><tspan x="66.6" y="0" class="st3 st4 st16">o</tspan><tspan x="70.6" y="0" class="st3 st4 st16">w on</tspan><tspan x="85.8" y="0" class="st3 st4 st16">e </tspan></text>
		</g>
		<g class="st1">
			<text transform="matrix(1 0 0 1 334.7686 192.1099)" class="st3 st4 st16"> </text>
		</g>
		<g class="st1">
			<text transform="matrix(1 0 0 1 233.5635 204.1099)"><tspan x="0" y="0" class="st3 st4 st16">o</tspan><tspan x="4.1" y="0" class="st3 st4 st16">f</tspan><tspan x="6.3" y="0" class="st3 st4 st16"> </tspan><tspan x="8" y="0" class="st3 st4 st16">t</tspan><tspan x="10.5" y="0" class="st3 st4 st16">h</tspan><tspan x="14.6" y="0" class="st3 st4 st16">e</tspan><tspan x="18.3" y="0" class="st3 st4 st16"> g</tspan><tspan x="24.1" y="0" class="st3 st4 st16">r</tspan><tspan x="26.6" y="0" class="st3 st4 st16">eat in</tspan><tspan x="44" y="0" class="st3 st4 st16">t</tspan><tspan x="46.5" y="0" class="st3 st4 st16">eriors in New</tspan><tspan x="87.4" y="0" class="st3 st4 st16"> </tspan><tspan x="89" y="0" class="st3 st4 st16">Y</tspan><tspan x="92.5" y="0" class="st3 st4 st16">ork</tspan><tspan x="102.6" y="0" class="st3 st4 st16">.</tspan></text>
		</g>
		<g class="st1">
			<text transform="matrix(1 0 0 1 44.9004 762.127)"><tspan x="0" y="0" class="st3 st17 st16 st10">00</tspan><tspan x="9.4" y="0" class="st3 st17 st16"> </tspan></text>
		</g>
		<g class="st1">
			<text transform="matrix(1 0 0 1 56.7227 762.127)"><tspan x="0" y="0" class="st3 st6 st18 st10">QU</tspan><tspan x="10.4" y="0" class="st3 st6 st18 st10">E</tspan><tspan x="14.6" y="0" class="st3 st6 st18 st10">S</tspan><tspan x="18.7" y="0" class="st3 st6 st18">T</tspan></text>
		</g>
	</g>
</g>
</svg>
