<?xml version="1.0" encoding="utf-8"?>
<!-- Generator: Adobe Illustrator 23.0.4, SVG Export Plug-In . SVG Version: 6.00 Build 0)  -->
<svg version="1.1" id="Layer_1" xmlns="http://www.w3.org/2000/svg" xmlns:xlink="http://www.w3.org/1999/xlink" x="0px" y="0px"
	 viewBox="0 0 585 783" style="enable-background:new 0 0 585 783;" xml:space="preserve">
<style type="text/css">
	.st0{clip-path:url(#SVGID_2_);fill:#362018;}
	.st1{clip-path:url(#SVGID_2_);}
	.st2{clip-path:url(#SVGID_2_);fill:#FFF22D;}
	.st3{clip-path:url(#SVGID_6_);}
	.st4{clip-path:url(#SVGID_10_);}
	.st5{clip-path:url(#SVGID_12_);}
	.st6{clip-path:url(#SVGID_16_);fill:#4C4731;}
	.st7{clip-path:url(#SVGID_16_);}
	.st8{clip-path:url(#SVGID_18_);}
	.st9{clip-path:url(#SVGID_16_);fill:none;stroke:#FFFFFF;stroke-width:0.5;}
	.st10{clip-path:url(#SVGID_24_);}
	.st11{clip-path:url(#SVGID_26_);}
	.st12{clip-path:url(#SVGID_30_);}
	.st13{clip-path:url(#SVGID_32_);}
	.st14{clip-path:url(#SVGID_38_);fill:#362018;}
	.st15{clip-path:url(#SVGID_38_);}
	.st16{clip-path:url(#SVGID_40_);}
	.st17{clip-path:url(#SVGID_44_);}
	.st18{clip-path:url(#SVGID_38_);fill:none;stroke:#FFFFFF;stroke-width:0.5;}
	.st19{clip-path:url(#SVGID_48_);fill:#4C4731;}
	.st20{clip-path:url(#SVGID_48_);}
	.st21{clip-path:url(#SVGID_50_);}
	.st22{fill:#FFFFFF;}
	.st23{font-family:'SimonciniGaramond';}
	.st24{font-size:9px;}
	.st25{letter-spacing:1;}
	.st26{font-family:'SimonciniGaramond-Italic';}
	.st27{font-family:'ZapfDingbatsITC';}
	.st28{clip-path:url(#SVGID_54_);}
	.st29{font-family:'MetaPlusBold-Italic';}
	.st30{font-size:7px;}
	.st31{clip-path:url(#SVGID_48_);fill:none;stroke:#FFFFFF;stroke-width:0.5;}
	.st32{font-family:'MetaPlusBlack-Roman';}
	.st33{font-size:6px;}
	.st34{clip-path:url(#SVGID_58_);}
	.st35{clip-path:url(#SVGID_60_);}
</style>
<g>
	<g>
		<defs>
			<rect id="SVGID_47_" width="585" height="783"/>
		</defs>
		<clipPath id="SVGID_2_">
			<use xlink:href="#SVGID_47_"  style="overflow:visible;"/>
		</clipPath>
		<rect style="clip-path:url(#SVGID_2_);fill:#4C4731;" width="346.2" height="783"/>
		<g class="st1">
			<defs>
				<rect id="SVGID_49_" x="346.2" width="238.8" height="783"/>
			</defs>
			<clipPath id="SVGID_4_">
				<use xlink:href="#SVGID_49_"  style="overflow:visible;"/>
			</clipPath>
			<g style="clip-path:url(#SVGID_4_);">
				<defs>
					<rect id="SVGID_51_" x="344.7" y="-1.7" width="242" height="786"/>
				</defs>
				<clipPath id="SVGID_6_">
					<use xlink:href="#SVGID_51_"  style="overflow:visible;"/>
				</clipPath>
				<g class="st3">
					
						<image style="overflow:visible;" width="254" height="825" xlink:href="D305A22976E69EBD.jpg"  transform="matrix(0.9528 0 0 0.9528 344.7233 -1.7477)">
					</image>
				</g>
			</g>
		</g>
		<g class="st1">
			<text transform="matrix(1 0 0 1 44.9004 486.1099)"><tspan x="0" y="0" class="st22 st23 st24">The</tspan><tspan x="14.5" y="0" class="st22 st23 st24"> </tspan><tspan x="17.3" y="0" class="st22 st23 st24">c</tspan><tspan x="21.5" y="0" class="st22 st23 st24">h</tspan><tspan x="26.6" y="0" class="st22 st23 st24">a</tspan><tspan x="31.2" y="0" class="st22 st23 st24">n</tspan><tspan x="36.3" y="0" class="st22 st23 st24">ges</tspan><tspan x="50" y="0" class="st22 st23 st24"> </tspan><tspan x="52.7" y="0" class="st22 st23 st24">i</tspan><tspan x="55" y="0" class="st22 st23 st24">n</tspan><tspan x="60.1" y="0" class="st22 st23 st24">cl</tspan><tspan x="66.4" y="0" class="st22 st23 st24">u</tspan><tspan x="71.5" y="0" class="st22 st23 st24">ded</tspan><tspan x="86.4" y="0" class="st22 st23 st24"> </tspan><tspan x="89.1" y="0" class="st22 st23 st24">n</tspan><tspan x="94.1" y="0" class="st22 st23 st24">ew</tspan><tspan x="105.5" y="0" class="st22 st23 st24"> </tspan><tspan x="108.1" y="0" class="st22 st23 st24">l</tspan><tspan x="110.3" y="0" class="st22 st23 st24">i</tspan><tspan x="112.5" y="0" class="st22 st23 st24">ght</tspan><tspan x="125.8" y="0" class="st22 st23 st24">in</tspan><tspan x="133.1" y="0" class="st22 st23 st24">g</tspan><tspan x="138.2" y="0" class="st22 st23 st24">,</tspan><tspan x="140.1" y="0" class="st22 st23 st24"> </tspan><tspan x="142.8" y="0" class="st22 st23 st24">r</tspan><tspan x="145.8" y="0" class="st22 st23 st24">e</tspan><tspan x="150.4" y="0" class="st22 st23 st24">s</tspan><tspan x="154.1" y="0" class="st22 st23 st24">t</tspan><tspan x="157.1" y="0" class="st22 st23 st24">or</tspan><tspan x="165.2" y="0" class="st22 st23 st24">e</tspan><tspan x="169.8" y="0" class="st22 st23 st24">d</tspan><tspan x="174.9" y="0" class="st22 st23 st24"> </tspan><tspan x="177.6" y="0" class="st22 st23 st24">p</tspan><tspan x="182.8" y="0" class="st22 st23 st24">er</tspan><tspan x="190.4" y="0" class="st22 st23 st24">i</tspan><tspan x="192.6" y="0" class="st22 st23 st24">o</tspan><tspan x="197.6" y="0" class="st22 st23 st24">d</tspan><tspan x="202.8" y="0" class="st22 st23 st24"> </tspan><tspan x="205.5" y="0" class="st22 st23 st24">f</tspan><tspan x="208.2" y="0" class="st22 st23 st24">u</tspan><tspan x="213.2" y="0" class="st22 st23 st24">r</tspan><tspan x="216.3" y="0" class="st22 st23 st24">n</tspan><tspan x="221.3" y="0" class="st22 st23 st24">it</tspan><tspan x="226.6" y="0" class="st22 st23 st24">ur</tspan><tspan x="234.7" y="0" class="st22 st23 st24">e</tspan><tspan x="239.3" y="0" class="st22 st23 st24">,</tspan><tspan x="241.2" y="0" class="st22 st23 st24"> </tspan><tspan x="243.9" y="0" class="st22 st23 st24">a</tspan><tspan x="248.3" y="0" class="st22 st23 st24">n</tspan><tspan x="253.4" y="0" class="st22 st23 st24">d </tspan></text>
		</g>
		<g class="st1">
			<text transform="matrix(1 0 0 1 44.9004 498.1099)"><tspan x="0" y="0" class="st22 st23 st24">open</tspan><tspan x="19.9" y="0" class="st22 st23 st24">i</tspan><tspan x="22.1" y="0" class="st22 st23 st24">ng</tspan><tspan x="32.3" y="0" class="st22 st23 st24 st25"> </tspan><tspan x="35.8" y="0" class="st22 st23 st24">Bel</tspan><tspan x="47.5" y="0" class="st22 st23 st24">l</tspan><tspan x="49.8" y="0" class="st22 st23 st24">e</tspan><tspan x="54.3" y="0" class="st22 st23 st24 st25"> </tspan><tspan x="57.8" y="0" class="st22 st23 st24">d</tspan><tspan x="63" y="0" class="st22 st23 st24">a</tspan><tspan x="67.4" y="0" class="st22 st23 st24 st25"> </tspan><tspan x="70.8" y="0" class="st22 st23 st24">C</tspan><tspan x="76.1" y="0" class="st22 st23 st24">o</tspan><tspan x="81.2" y="0" class="st22 st23 st24">s</tspan><tspan x="84.8" y="0" class="st22 st23 st24">ta</tspan><tspan x="92.3" y="0" class="st22 st23 st24 st25"> </tspan><tspan x="95.7" y="0" class="st22 st23 st24">G</tspan><tspan x="101.6" y="0" class="st22 st23 st24">r</tspan><tspan x="104.7" y="0" class="st22 st23 st24">eene</tspan><tspan x="123.5" y="0" class="st22 st23 st24">’</tspan><tspan x="124.8" y="0" class="st22 st23 st24">s</tspan><tspan x="128.5" y="0" class="st22 st23 st24 st25"> </tspan><tspan x="131.9" y="0" class="st22 st23 st24">ofﬁce</tspan><tspan x="153.2" y="0" class="st22 st23 st24 st25"> </tspan><tspan x="156.6" y="0" class="st22 st23 st24">to</tspan><tspan x="164.7" y="0" class="st22 st23 st24 st25"> </tspan><tspan x="168.2" y="0" class="st22 st23 st24">t</tspan><tspan x="171.3" y="0" class="st22 st23 st24">h</tspan><tspan x="176.3" y="0" class="st22 st23 st24">e</tspan><tspan x="180.9" y="0" class="st22 st23 st24 st25"> </tspan><tspan x="184.4" y="0" class="st22 st23 st24">p</tspan><tspan x="189.6" y="0" class="st22 st23 st24">u</tspan><tspan x="194.6" y="0" class="st22 st23 st24">b</tspan><tspan x="199.8" y="0" class="st22 st23 st24">l</tspan><tspan x="202" y="0" class="st22 st23 st24">i</tspan><tspan x="204.2" y="0" class="st22 st23 st24">c.</tspan><tspan x="210.3" y="0" class="st22 st23 st24 st25"> </tspan><tspan x="213.7" y="0" class="st22 st23 st24">T</tspan><tspan x="218.3" y="0" class="st22 st23 st24">h</tspan><tspan x="223.4" y="0" class="st22 st23 st24">i</tspan><tspan x="225.6" y="0" class="st22 st23 st24">s</tspan><tspan x="229.2" y="0" class="st22 st23 st24 st25"> </tspan><tspan x="232.7" y="0" class="st22 st23 st24">wa</tspan><tspan x="243.8" y="0" class="st22 st23 st24">s</tspan><tspan x="247.5" y="0" class="st22 st23 st24 st25"> </tspan><tspan x="250.9" y="0" class="st22 st23 st24">a </tspan></text>
		</g>
		<g class="st1">
			<text transform="matrix(1 0 0 1 44.9004 510.1099)"><tspan x="0" y="0" class="st22 st23 st24">more</tspan><tspan x="20.3" y="0" class="st22 st23 st24"> </tspan><tspan x="21.9" y="0" class="st22 st23 st24">m</tspan><tspan x="29.5" y="0" class="st22 st23 st24">od</tspan><tspan x="39.6" y="0" class="st22 st23 st24">e</tspan><tspan x="44.2" y="0" class="st22 st23 st24">r</tspan><tspan x="47.3" y="0" class="st22 st23 st24">n,</tspan><tspan x="54.3" y="0" class="st22 st23 st24"> </tspan><tspan x="55.9" y="0" class="st22 st23 st24">mo</tspan><tspan x="68.5" y="0" class="st22 st23 st24">r</tspan><tspan x="71.6" y="0" class="st22 st23 st24">e</tspan><tspan x="76.2" y="0" class="st22 st23 st24"> </tspan><tspan x="77.8" y="0" class="st22 st23 st24">ap</tspan><tspan x="87.4" y="0" class="st22 st23 st24">pr</tspan><tspan x="95.6" y="0" class="st22 st23 st24">oachab</tspan><tspan x="123.9" y="0" class="st22 st23 st24">l</tspan><tspan x="126.2" y="0" class="st22 st23 st24">e</tspan><tspan x="130.8" y="0" class="st22 st23 st24"> </tspan><tspan x="132.4" y="0" class="st22 st23 st24">l</tspan><tspan x="134.6" y="0" class="st22 st23 st24">i</tspan><tspan x="136.8" y="0" class="st22 st23 st24">br</tspan><tspan x="145" y="0" class="st22 st23 st24">a</tspan><tspan x="149.4" y="0" class="st22 st23 st24">r</tspan><tspan x="152.4" y="0" class="st22 st23 st24">y</tspan><tspan x="155.9" y="0" class="st22 st23 st24">,</tspan><tspan x="157.9" y="0" class="st22 st23 st24"> </tspan><tspan x="159.5" y="0" class="st22 st23 st24">a</tspan><tspan x="163.9" y="0" class="st22 st23 st24">nd</tspan><tspan x="174.2" y="0" class="st22 st23 st24"> </tspan><tspan x="175.8" y="0" class="st22 st23 st24">o</tspan><tspan x="180.8" y="0" class="st22 st23 st24">n</tspan><tspan x="185.9" y="0" class="st22 st23 st24">e</tspan><tspan x="190.5" y="0" class="st22 st23 st24"> </tspan><tspan x="192.1" y="0" class="st22 st23 st24">t</tspan><tspan x="195.2" y="0" class="st22 st23 st24">h</tspan><tspan x="200.2" y="0" class="st22 st23 st24">at</tspan><tspan x="207.7" y="0" class="st22 st23 st24"> </tspan><tspan x="209.3" y="0" class="st22 st23 st24">reﬂecte</tspan><tspan x="238.2" y="0" class="st22 st23 st24">d</tspan><tspan x="243.3" y="0" class="st22 st23 st24"> </tspan><tspan x="244.9" y="0" class="st22 st23 st24">t</tspan><tspan x="248" y="0" class="st22 st23 st24">h</tspan><tspan x="253.1" y="0" class="st22 st23 st24">a</tspan><tspan x="257.5" y="0" class="st22 st23 st24">t </tspan></text>
		</g>
		<g class="st1">
			<text transform="matrix(1 0 0 1 44.9004 522.1099)"><tspan x="0" y="0" class="st22 st23 st24">McKim</tspan><tspan x="26.2" y="0" class="st22 st23 st24"> </tspan><tspan x="28.8" y="0" class="st22 st23 st24">was</tspan><tspan x="43.6" y="0" class="st22 st23 st24"> </tspan><tspan x="46.3" y="0" class="st22 st23 st24">i</tspan><tspan x="48.5" y="0" class="st22 st23 st24">ndeed,</tspan><tspan x="75" y="0" class="st22 st23 st24"> </tspan><tspan x="77.7" y="0" class="st22 st23 st24">a</tspan><tspan x="82.1" y="0" class="st22 st23 st24">s</tspan><tspan x="85.7" y="0" class="st22 st23 st24"> </tspan><tspan x="88.4" y="0" class="st22 st23 st24">D</tspan><tspan x="94.5" y="0" class="st22 st23 st24">ir</tspan><tspan x="99.7" y="0" class="st22 st23 st24">ecto</tspan><tspan x="116.5" y="0" class="st22 st23 st24">r</tspan><tspan x="119.5" y="0" class="st22 st23 st24"> </tspan><tspan x="122.2" y="0" class="st22 st23 st24">W</tspan><tspan x="129.6" y="0" class="st22 st23 st24">i</tspan><tspan x="131.7" y="0" class="st22 st23 st24">ll</tspan><tspan x="136.2" y="0" class="st22 st23 st24">i</tspan><tspan x="138.4" y="0" class="st22 st23 st24">am</tspan><tspan x="150.4" y="0" class="st22 st23 st24"> </tspan><tspan x="153" y="0" class="st22 st23 st24">M</tspan><tspan x="160.4" y="0" class="st22 st23 st24">.</tspan><tspan x="162.3" y="0" class="st22 st23 st24"> </tspan><tspan x="164.9" y="0" class="st22 st23 st24">G</tspan><tspan x="170.8" y="0" class="st22 st23 st24">r</tspan><tspan x="173.9" y="0" class="st22 st23 st24">i</tspan><tspan x="176.1" y="0" class="st22 st23 st24">s</tspan><tspan x="179.7" y="0" class="st22 st23 st24">w</tspan><tspan x="186.4" y="0" class="st22 st23 st24">o</tspan><tspan x="191.4" y="0" class="st22 st23 st24">l</tspan><tspan x="193.7" y="0" class="st22 st23 st24">d</tspan><tspan x="198.8" y="0" class="st22 st23 st24"> </tspan><tspan x="201.5" y="0" class="st22 st23 st24">p</tspan><tspan x="206.7" y="0" class="st22 st23 st24">ut</tspan><tspan x="214.8" y="0" class="st22 st23 st24">s</tspan><tspan x="218.4" y="0" class="st22 st23 st24"> </tspan><tspan x="221.1" y="0" class="st22 st23 st24">it</tspan><tspan x="226.3" y="0" class="st22 st23 st24">,</tspan><tspan x="228.3" y="0" class="st22 st23 st24"> </tspan><tspan x="230.9" y="0" class="st22 st23 st24">“t</tspan><tspan x="237.3" y="0" class="st22 st23 st24">h</tspan><tspan x="242.3" y="0" class="st22 st23 st24">e </tspan></text>
		</g>
		<g class="st1">
			<text transform="matrix(1 0 0 1 44.9004 534.1104)"><tspan x="0" y="0" class="st22 st23 st24">heart an</tspan><tspan x="31.7" y="0" class="st22 st23 st24">d</tspan><tspan x="36.9" y="0" class="st22 st23 st24"> </tspan><tspan x="38.9" y="0" class="st22 st23 st24">so</tspan><tspan x="47.5" y="0" class="st22 st23 st24">u</tspan><tspan x="52.6" y="0" class="st22 st23 st24">l</tspan><tspan x="54.8" y="0" class="st22 st23 st24">” </tspan><tspan x="60.1" y="0" class="st22 st23 st24">o</tspan><tspan x="65.1" y="0" class="st22 st23 st24">f t</tspan><tspan x="72.9" y="0" class="st22 st23 st24">h</tspan><tspan x="78" y="0" class="st22 st23 st24">e m</tspan><tspan x="92.1" y="0" class="st22 st23 st24">u</tspan><tspan x="97.2" y="0" class="st22 st23 st24">s</tspan><tspan x="100.8" y="0" class="st22 st23 st24">u</tspan><tspan x="105.9" y="0" class="st22 st23 st24">em</tspan><tspan x="118.1" y="0" class="st22 st23 st24">.</tspan></text>
		</g>
		<g class="st1">
			<text transform="matrix(1 0 0 1 53.9004 546.1104)"><tspan x="0" y="0" class="st22 st23 st24">The</tspan><tspan x="14" y="0" class="st22 st23 st24"> </tspan><tspan x="16.2" y="0" class="st22 st23 st24">Morgan</tspan><tspan x="45.7" y="0" class="st22 st23 st24"> </tspan><tspan x="47.9" y="0" class="st22 st23 st24">Library</tspan><tspan x="73.8" y="0" class="st22 st23 st24"> </tspan><tspan x="76.1" y="0" class="st22 st23 st24">&amp;</tspan><tspan x="81.5" y="0" class="st22 st23 st24"> </tspan><tspan x="83.7" y="0" class="st22 st23 st24">Museum</tspan><tspan x="116.5" y="0" class="st22 st23 st24"> </tspan><tspan x="118.7" y="0" class="st22 st23 st24">was</tspan><tspan x="133.2" y="0" class="st22 st23 st24"> </tspan><tspan x="135.4" y="0" class="st22 st23 st24">reborn</tspan><tspan x="160.9" y="0" class="st22 st23 st24"> </tspan><tspan x="163.1" y="0" class="st22 st23 st24">as</tspan><tspan x="171" y="0" class="st22 st23 st24"> </tspan><tspan x="173.2" y="0" class="st22 st23 st24">one</tspan><tspan x="187.7" y="0" class="st22 st23 st24"> </tspan><tspan x="189.9" y="0" class="st22 st23 st24">of</tspan><tspan x="197.5" y="0" class="st22 st23 st24"> </tspan><tspan x="199.7" y="0" class="st22 st23 st24">New</tspan><tspan x="216.7" y="0" class="st22 st23 st24"> </tspan><tspan x="219" y="0" class="st22 st23 st24">Y</tspan><tspan x="223" y="0" class="st22 st23 st24">ork</tspan><tspan x="235.1" y="0" class="st22 st23 st24">’</tspan><tspan x="236.3" y="0" class="st22 st23 st24">s </tspan></text>
		</g>
		<g class="st1">
			<text transform="matrix(1 0 0 1 44.9004 558.1104)"><tspan x="0" y="0" class="st22 st23 st24">great</tspan><tspan x="19.8" y="0" class="st22 st23 st24 st25"> </tspan><tspan x="22.9" y="0" class="st22 st23 st24">jewels,</tspan><tspan x="48.3" y="0" class="st22 st23 st24 st25"> </tspan><tspan x="51.3" y="0" class="st22 st23 st24">not</tspan><tspan x="64.2" y="0" class="st22 st23 st24 st25"> </tspan><tspan x="67.3" y="0" class="st22 st23 st24">only</tspan><tspan x="83.6" y="0" class="st22 st23 st24 st25"> </tspan><tspan x="86.7" y="0" class="st22 st23 st24">offering</tspan><tspan x="116.5" y="0" class="st22 st23 st24 st25"> </tspan><tspan x="119.5" y="0" class="st22 st23 st24">wonderful</tspan><tspan x="158.3" y="0" class="st22 st23 st24 st25"> </tspan><tspan x="161.4" y="0" class="st22 st23 st24">exhibits—like</tspan><tspan x="212.9" y="0" class="st22 st23 st24 st25"> </tspan><tspan x="216" y="0" class="st22 st23 st24">the</tspan><tspan x="228.5" y="0" class="st22 st23 st24 st25"> </tspan><tspan x="231.5" y="0" class="st22 st23 st24">current </tspan></text>
		</g>
		<g class="st1">
			<text transform="matrix(1 0 0 1 44.9004 570.1104)"><tspan x="0" y="0" class="st22 st23 st24">one</tspan><tspan x="14.4" y="0" class="st22 st23 st24"> </tspan><tspan x="17.2" y="0" class="st22 st23 st24">about</tspan><tspan x="39.5" y="0" class="st22 st23 st24"> </tspan><tspan x="42.2" y="0" class="st22 st23 st24">everyone</tspan><tspan x="77.2" y="0" class="st22 st23 st24">’</tspan><tspan x="78.4" y="0" class="st22 st23 st24">s</tspan><tspan x="81.9" y="0" class="st22 st23 st24"> </tspan><tspan x="84.6" y="0" class="st22 st23 st24">favorite</tspan><tspan x="113.4" y="0" class="st22 st23 st24"> </tspan><tspan x="116.1" y="0" class="st22 st23 st24">childhood</tspan><tspan x="154.4" y="0" class="st22 st23 st24"> </tspan><tspan x="157.1" y="0" class="st22 st23 st24">stor</tspan><tspan x="171.5" y="0" class="st22 st23 st24">y</tspan><tspan x="174.9" y="0" class="st22 st23 st24">,</tspan><tspan x="176.8" y="0" class="st22 st23 st24"> </tspan><tspan x="179.5" y="0" class="st22 st23 st24">Antoine</tspan><tspan x="209.5" y="0" class="st22 st23 st24"> </tspan><tspan x="212.2" y="0" class="st22 st23 st24">de</tspan><tspan x="221.8" y="0" class="st22 st23 st24"> </tspan><tspan x="224.5" y="0" class="st22 st23 st24">Saint-Ex</tspan></text>
		</g>
		<g class="st1">
			<text transform="matrix(1 0 0 1 298.4648 570.1104)" class="st22 st23 st24">-</text>
		</g>
		<g class="st1">
			<text transform="matrix(1 0 0 1 44.9004 582.1104)"><tspan x="0" y="0" class="st22 st23 st24">upéry</tspan><tspan x="21.8" y="0" class="st22 st23 st24">’</tspan><tspan x="23" y="0" class="st22 st23 st24">s </tspan></text>
		</g>
		<g class="st1">
			<text transform="matrix(1 0 0 1 73.3037 582.1104)" class="st22 st26 st24">The Little Prince</text>
		</g>
		<g class="st1">
			<text transform="matrix(1 0 0 1 134.6562 582.1104)" class="st22 st23 st24">—but also a spectacular place to hold events. </text>
		</g>
		<g class="st1">
			<text transform="matrix(1 0 0 1 53.9004 594.1104)"><tspan x="0" y="0" class="st22 st23 st24">Afte</tspan><tspan x="16" y="0" class="st22 st23 st24">r</tspan><tspan x="19" y="0" class="st22 st23 st24"> </tspan><tspan x="21.5" y="0" class="st22 st23 st24">d</tspan><tspan x="26.7" y="0" class="st22 st23 st24">i</tspan><tspan x="28.9" y="0" class="st22 st23 st24">n</tspan><tspan x="34" y="0" class="st22 st23 st24">n</tspan><tspan x="39.1" y="0" class="st22 st23 st24">e</tspan><tspan x="43.7" y="0" class="st22 st23 st24">r</tspan><tspan x="46" y="0" class="st22 st23 st24">,</tspan><tspan x="48" y="0" class="st22 st23 st24"> </tspan><tspan x="50.5" y="0" class="st22 st23 st24">a</tspan><tspan x="54.9" y="0" class="st22 st23 st24"> </tspan><tspan x="57.5" y="0" class="st22 st23 st24">coup</tspan><tspan x="76.9" y="0" class="st22 st23 st24">l</tspan><tspan x="79.1" y="0" class="st22 st23 st24">e</tspan><tspan x="83.7" y="0" class="st22 st23 st24"> </tspan><tspan x="86.2" y="0" class="st22 st23 st24">o</tspan><tspan x="91.3" y="0" class="st22 st23 st24">f</tspan><tspan x="94" y="0" class="st22 st23 st24"> </tspan><tspan x="96.5" y="0" class="st22 st23 st24">u</tspan><tspan x="101.6" y="0" class="st22 st23 st24">s</tspan><tspan x="105.2" y="0" class="st22 st23 st24"> </tspan><tspan x="107.8" y="0" class="st22 st23 st24">sn</tspan><tspan x="116.5" y="0" class="st22 st23 st24">u</tspan><tspan x="121.5" y="0" class="st22 st23 st24">ck</tspan><tspan x="130" y="0" class="st22 st23 st24"> </tspan><tspan x="132.5" y="0" class="st22 st23 st24">o</tspan><tspan x="137.5" y="0" class="st22 st23 st24">ff</tspan><tspan x="142.9" y="0" class="st22 st23 st24"> </tspan><tspan x="145.4" y="0" class="st22 st23 st24">to</tspan><tspan x="153.5" y="0" class="st22 st23 st24"> </tspan><tspan x="156.1" y="0" class="st22 st23 st24">the</tspan><tspan x="168.8" y="0" class="st22 st23 st24"> </tspan><tspan x="171.3" y="0" class="st22 st23 st24">s</tspan><tspan x="175" y="0" class="st22 st23 st24">t</tspan><tspan x="178.1" y="0" class="st22 st23 st24">ud</tspan><tspan x="188.3" y="0" class="st22 st23 st24">y</tspan><tspan x="192.6" y="0" class="st22 st23 st24"> </tspan><tspan x="195.1" y="0" class="st22 st23 st24">v</tspan><tspan x="199.5" y="0" class="st22 st23 st24">a</tspan><tspan x="204" y="0" class="st22 st23 st24">ul</tspan><tspan x="211.2" y="0" class="st22 st23 st24">t</tspan><tspan x="214.3" y="0" class="st22 st23 st24">.</tspan><tspan x="216.2" y="0" class="st22 st23 st24"> </tspan><tspan x="218.8" y="0" class="st22 st23 st24">W</tspan><tspan x="225.8" y="0" class="st22 st23 st24">e</tspan><tspan x="230.4" y="0" class="st22 st23 st24"> </tspan><tspan x="233" y="0" class="st22 st23 st24">c</tspan><tspan x="237.1" y="0" class="st22 st23 st24">o</tspan></text>
		</g>
		<g class="st1">
			<text transform="matrix(1 0 0 1 298.4648 594.1104)" class="st22 st23 st24">-</text>
		</g>
		<g class="st1">
			<text transform="matrix(1 0 0 1 44.9004 606.1104)"><tspan x="0" y="0" class="st22 st23 st24">erce</tspan><tspan x="16.4" y="0" class="st22 st23 st24">d</tspan><tspan x="21.5" y="0" class="st22 st23 st24"> </tspan><tspan x="23.9" y="0" class="st22 st23 st24">s</tspan><tspan x="27.5" y="0" class="st22 st23 st24">o</tspan><tspan x="32.6" y="0" class="st22 st23 st24">meone</tspan><tspan x="59.5" y="0" class="st22 st23 st24"> </tspan><tspan x="61.8" y="0" class="st22 st23 st24">to</tspan><tspan x="69.9" y="0" class="st22 st23 st24"> </tspan><tspan x="72.3" y="0" class="st22 st23 st24">s</tspan><tspan x="76" y="0" class="st22 st23 st24">ho</tspan><tspan x="86.1" y="0" class="st22 st23 st24">w</tspan><tspan x="92.8" y="0" class="st22 st23 st24"> </tspan><tspan x="95.2" y="0" class="st22 st23 st24">us</tspan><tspan x="103.8" y="0" class="st22 st23 st24"> </tspan><tspan x="106.2" y="0" class="st22 st23 st24">i</tspan><tspan x="108.4" y="0" class="st22 st23 st24">n,</tspan><tspan x="115.4" y="0" class="st22 st23 st24"> </tspan><tspan x="117.8" y="0" class="st22 st23 st24">th</tspan><tspan x="126" y="0" class="st22 st23 st24">ou</tspan><tspan x="136" y="0" class="st22 st23 st24">g</tspan><tspan x="141.1" y="0" class="st22 st23 st24">h</tspan><tspan x="146.2" y="0" class="st22 st23 st24"> </tspan><tspan x="148.6" y="0" class="st22 st23 st24">i</tspan><tspan x="150.8" y="0" class="st22 st23 st24">t</tspan><tspan x="153.9" y="0" class="st22 st23 st24"> </tspan><tspan x="156.2" y="0" class="st22 st23 st24">wa</tspan><tspan x="167.4" y="0" class="st22 st23 st24">s</tspan><tspan x="171" y="0" class="st22 st23 st24"> </tspan><tspan x="173.4" y="0" class="st22 st23 st24">very</tspan><tspan x="189.8" y="0" class="st22 st23 st24"> </tspan><tspan x="192.1" y="0" class="st22 st23 st24">m</tspan><tspan x="199.7" y="0" class="st22 st23 st24">u</tspan><tspan x="204.8" y="0" class="st22 st23 st24">c</tspan><tspan x="208.9" y="0" class="st22 st23 st24">h</tspan><tspan x="214" y="0" class="st22 st23 st24"> </tspan><tspan x="216.3" y="0" class="st22 st23 st24">afte</tspan><tspan x="231.1" y="0" class="st22 st23 st24">r</tspan><tspan x="234.2" y="0" class="st22 st23 st24"> </tspan><tspan x="236.5" y="0" class="st22 st23 st24">h</tspan><tspan x="241.6" y="0" class="st22 st23 st24">o</tspan><tspan x="246.6" y="0" class="st22 st23 st24">ur</tspan><tspan x="254.7" y="0" class="st22 st23 st24">s</tspan><tspan x="258.4" y="0" class="st22 st23 st24">. </tspan></text>
		</g>
		<g class="st1">
			<text transform="matrix(1 0 0 1 44.9004 618.1104)"><tspan x="0" y="0" class="st22 st23 st24">W</tspan><tspan x="7" y="0" class="st22 st23 st24">e</tspan><tspan x="11.6" y="0" class="st22 st23 st24"> </tspan><tspan x="13.5" y="0" class="st22 st23 st24">we</tspan><tspan x="24.8" y="0" class="st22 st23 st24">r</tspan><tspan x="27.9" y="0" class="st22 st23 st24">e</tspan><tspan x="32.5" y="0" class="st22 st23 st24"> </tspan><tspan x="34.3" y="0" class="st22 st23 st24">abs</tspan><tspan x="47.6" y="0" class="st22 st23 st24">o</tspan><tspan x="52.6" y="0" class="st22 st23 st24">lutely</tspan><tspan x="74.1" y="0" class="st22 st23 st24"> </tspan><tspan x="76" y="0" class="st22 st23 st24">not</tspan><tspan x="89.2" y="0" class="st22 st23 st24"> </tspan><tspan x="91.1" y="0" class="st22 st23 st24">to</tspan><tspan x="99.2" y="0" class="st22 st23 st24"> </tspan><tspan x="101.1" y="0" class="st22 st23 st24">t</tspan><tspan x="104.1" y="0" class="st22 st23 st24">ou</tspan><tspan x="114.2" y="0" class="st22 st23 st24">ch</tspan><tspan x="123.4" y="0" class="st22 st23 st24"> </tspan><tspan x="125.3" y="0" class="st22 st23 st24">a</tspan><tspan x="129.7" y="0" class="st22 st23 st24">n</tspan><tspan x="134.8" y="0" class="st22 st23 st24">yt</tspan><tspan x="142.2" y="0" class="st22 st23 st24">hi</tspan><tspan x="149.4" y="0" class="st22 st23 st24">ng.</tspan><tspan x="161.6" y="0" class="st22 st23 st24"> </tspan><tspan x="163.5" y="0" class="st22 st23 st24">W</tspan><tspan x="170.5" y="0" class="st22 st23 st24">e</tspan><tspan x="175.1" y="0" class="st22 st23 st24"> </tspan><tspan x="177" y="0" class="st22 st23 st24">s</tspan><tspan x="180.6" y="0" class="st22 st23 st24">wo</tspan><tspan x="192.4" y="0" class="st22 st23 st24">r</tspan><tspan x="195.4" y="0" class="st22 st23 st24">e</tspan><tspan x="200" y="0" class="st22 st23 st24"> </tspan><tspan x="201.9" y="0" class="st22 st23 st24">we</tspan><tspan x="213.2" y="0" class="st22 st23 st24"> </tspan><tspan x="215.1" y="0" class="st22 st23 st24">j</tspan><tspan x="217.4" y="0" class="st22 st23 st24">us</tspan><tspan x="226" y="0" class="st22 st23 st24">t</tspan><tspan x="229.1" y="0" class="st22 st23 st24"> </tspan><tspan x="231" y="0" class="st22 st23 st24">wa</tspan><tspan x="242.1" y="0" class="st22 st23 st24">n</tspan><tspan x="247.2" y="0" class="st22 st23 st24">te</tspan><tspan x="254.9" y="0" class="st22 st23 st24">d </tspan></text>
		</g>
		<g class="st1">
			<text transform="matrix(1 0 0 1 44.9004 630.1104)"><tspan x="0" y="0" class="st22 st23 st24">to</tspan><tspan x="8.1" y="0" class="st22 st23 st24"> </tspan><tspan x="10.7" y="0" class="st22 st23 st24">pee</tspan><tspan x="25.1" y="0" class="st22 st23 st24">k</tspan><tspan x="29.4" y="0" class="st22 st23 st24"> </tspan><tspan x="32" y="0" class="st22 st23 st24">i</tspan><tspan x="34.2" y="0" class="st22 st23 st24">n</tspan><tspan x="39.3" y="0" class="st22 st23 st24">,</tspan><tspan x="41.2" y="0" class="st22 st23 st24"> </tspan><tspan x="43.9" y="0" class="st22 st23 st24">and</tspan><tspan x="58.5" y="0" class="st22 st23 st24"> </tspan><tspan x="61.1" y="0" class="st22 st23 st24">must</tspan><tspan x="80.5" y="0" class="st22 st23 st24"> </tspan><tspan x="83.1" y="0" class="st22 st23 st24">ha</tspan><tspan x="92.6" y="0" class="st22 st23 st24">v</tspan><tspan x="97" y="0" class="st22 st23 st24">e</tspan><tspan x="101.6" y="0" class="st22 st23 st24"> </tspan><tspan x="104.2" y="0" class="st22 st23 st24">s</tspan><tspan x="107.9" y="0" class="st22 st23 st24">eeme</tspan><tspan x="129.3" y="0" class="st22 st23 st24">d</tspan><tspan x="134.4" y="0" class="st22 st23 st24"> </tspan><tspan x="137" y="0" class="st22 st23 st24">r</tspan><tspan x="140.1" y="0" class="st22 st23 st24">e</tspan><tspan x="144.7" y="0" class="st22 st23 st24">sp</tspan><tspan x="153.5" y="0" class="st22 st23 st24">ecta</tspan><tspan x="169.7" y="0" class="st22 st23 st24">b</tspan><tspan x="174.9" y="0" class="st22 st23 st24">le</tspan><tspan x="181.7" y="0" class="st22 st23 st24"> </tspan><tspan x="184.3" y="0" class="st22 st23 st24">e</tspan><tspan x="188.9" y="0" class="st22 st23 st24">n</tspan><tspan x="194" y="0" class="st22 st23 st24">o</tspan><tspan x="199" y="0" class="st22 st23 st24">u</tspan><tspan x="204.1" y="0" class="st22 st23 st24">g</tspan><tspan x="209.2" y="0" class="st22 st23 st24">h,</tspan><tspan x="216.2" y="0" class="st22 st23 st24"> </tspan><tspan x="218.8" y="0" class="st22 st23 st24">b</tspan><tspan x="224" y="0" class="st22 st23 st24">eca</tspan><tspan x="237.2" y="0" class="st22 st23 st24">us</tspan><tspan x="245.9" y="0" class="st22 st23 st24">e</tspan><tspan x="250.5" y="0" class="st22 st23 st24"> </tspan><tspan x="253.1" y="0" class="st22 st23 st24">w</tspan><tspan x="259.8" y="0" class="st22 st23 st24">e </tspan></text>
		</g>
		<g class="st1">
			<text transform="matrix(1 0 0 1 44.9004 642.1104)"><tspan x="0" y="0" class="st22 st23 st24">were</tspan><tspan x="18.9" y="0" class="st22 st23 st24"> </tspan><tspan x="21.5" y="0" class="st22 st23 st24">so</tspan><tspan x="30.2" y="0" class="st22 st23 st24">on</tspan><tspan x="40.3" y="0" class="st22 st23 st24"> </tspan><tspan x="42.9" y="0" class="st22 st23 st24">s</tspan><tspan x="46.5" y="0" class="st22 st23 st24">ig</tspan><tspan x="53.8" y="0" class="st22 st23 st24">h</tspan><tspan x="58.9" y="0" class="st22 st23 st24">ing</tspan><tspan x="71.3" y="0" class="st22 st23 st24"> </tspan><tspan x="73.9" y="0" class="st22 st23 st24">with</tspan><tspan x="91" y="0" class="st22 st23 st24"> </tspan><tspan x="93.5" y="0" class="st22 st23 st24">p</tspan><tspan x="98.7" y="0" class="st22 st23 st24">leasu</tspan><tspan x="118.7" y="0" class="st22 st23 st24">r</tspan><tspan x="121.7" y="0" class="st22 st23 st24">e</tspan><tspan x="126.3" y="0" class="st22 st23 st24"> </tspan><tspan x="128.9" y="0" class="st22 st23 st24">at</tspan><tspan x="136.4" y="0" class="st22 st23 st24"> </tspan><tspan x="139" y="0" class="st22 st23 st24">b</tspan><tspan x="144.2" y="0" class="st22 st23 st24">e</tspan><tspan x="148.8" y="0" class="st22 st23 st24">in</tspan><tspan x="156" y="0" class="st22 st23 st24">g</tspan><tspan x="161.1" y="0" class="st22 st23 st24"> </tspan><tspan x="163.7" y="0" class="st22 st23 st24">a</tspan><tspan x="168.2" y="0" class="st22 st23 st24">b</tspan><tspan x="173.4" y="0" class="st22 st23 st24">le</tspan><tspan x="180.2" y="0" class="st22 st23 st24"> </tspan><tspan x="182.8" y="0" class="st22 st23 st24">t</tspan><tspan x="185.8" y="0" class="st22 st23 st24">o</tspan><tspan x="190.8" y="0" class="st22 st23 st24"> </tspan><tspan x="193.4" y="0" class="st22 st23 st24">e</tspan><tspan x="198" y="0" class="st22 st23 st24">n</tspan><tspan x="203.1" y="0" class="st22 st23 st24">j</tspan><tspan x="205.4" y="0" class="st22 st23 st24">o</tspan><tspan x="210.4" y="0" class="st22 st23 st24">y</tspan><tspan x="214.7" y="0" class="st22 st23 st24"> </tspan><tspan x="217.3" y="0" class="st22 st23 st24">a</tspan><tspan x="221.7" y="0" class="st22 st23 st24"> </tspan><tspan x="224.3" y="0" class="st22 st23 st24">p</tspan><tspan x="229.5" y="0" class="st22 st23 st24">lace</tspan><tspan x="244.9" y="0" class="st22 st23 st24"> </tspan><tspan x="247.5" y="0" class="st22 st23 st24">t</tspan><tspan x="250.5" y="0" class="st22 st23 st24">h</tspan><tspan x="255.6" y="0" class="st22 st23 st24">a</tspan><tspan x="260" y="0" class="st22 st23 st24">t </tspan></text>
		</g>
		<g class="st1">
			<text transform="matrix(1 0 0 1 44.9004 654.1104)"><tspan x="0" y="0" class="st22 st23 st24">had</tspan><tspan x="14.7" y="0" class="st22 st23 st24"> </tspan><tspan x="16.6" y="0" class="st22 st23 st24">o</tspan><tspan x="21.6" y="0" class="st22 st23 st24">bv</tspan><tspan x="31.2" y="0" class="st22 st23 st24">iou</tspan><tspan x="43.5" y="0" class="st22 st23 st24">sly</tspan><tspan x="53.7" y="0" class="st22 st23 st24"> </tspan><tspan x="55.6" y="0" class="st22 st23 st24">b</tspan><tspan x="60.8" y="0" class="st22 st23 st24">een</tspan><tspan x="75.1" y="0" class="st22 st23 st24"> </tspan><tspan x="77" y="0" class="st22 st23 st24">de</tspan><tspan x="86.8" y="0" class="st22 st23 st24">s</tspan><tspan x="90.4" y="0" class="st22 st23 st24">ig</tspan><tspan x="97.7" y="0" class="st22 st23 st24">n</tspan><tspan x="102.8" y="0" class="st22 st23 st24">e</tspan><tspan x="107.4" y="0" class="st22 st23 st24">d</tspan><tspan x="112.6" y="0" class="st22 st23 st24"> </tspan><tspan x="114.5" y="0" class="st22 st23 st24">by</tspan><tspan x="124" y="0" class="st22 st23 st24"> </tspan><tspan x="125.9" y="0" class="st22 st23 st24">a</tspan><tspan x="130.4" y="0" class="st22 st23 st24">nd</tspan><tspan x="140.6" y="0" class="st22 st23 st24"> </tspan><tspan x="142.5" y="0" class="st22 st23 st24">fo</tspan><tspan x="150.3" y="0" class="st22 st23 st24">r</tspan><tspan x="153.3" y="0" class="st22 st23 st24"> </tspan><tspan x="155.2" y="0" class="st22 st23 st24">t</tspan><tspan x="158.3" y="0" class="st22 st23 st24">h</tspan><tspan x="163.3" y="0" class="st22 st23 st24">o</tspan><tspan x="168.4" y="0" class="st22 st23 st24">s</tspan><tspan x="172" y="0" class="st22 st23 st24">e</tspan><tspan x="176.6" y="0" class="st22 st23 st24"> </tspan><tspan x="178.5" y="0" class="st22 st23 st24">of</tspan><tspan x="186.3" y="0" class="st22 st23 st24"> </tspan><tspan x="188.2" y="0" class="st22 st23 st24">us</tspan><tspan x="196.9" y="0" class="st22 st23 st24"> </tspan><tspan x="198.8" y="0" class="st22 st23 st24">w</tspan><tspan x="205.5" y="0" class="st22 st23 st24">h</tspan><tspan x="210.6" y="0" class="st22 st23 st24">o</tspan><tspan x="215.6" y="0" class="st22 st23 st24"> </tspan><tspan x="217.5" y="0" class="st22 st23 st24">lo</tspan><tspan x="224.8" y="0" class="st22 st23 st24">v</tspan><tspan x="229.2" y="0" class="st22 st23 st24">e</tspan><tspan x="233.8" y="0" class="st22 st23 st24"> </tspan><tspan x="235.7" y="0" class="st22 st23 st24">b</tspan><tspan x="240.9" y="0" class="st22 st23 st24">ook</tspan><tspan x="255.3" y="0" class="st22 st23 st24">s</tspan><tspan x="258.9" y="0" class="st22 st23 st24">.</tspan></text>
		</g>
		<g class="st1">
			<text transform="matrix(1 0 0 1 53.9004 666.1104)"><tspan x="0" y="0" class="st22 st23 st24">An</tspan><tspan x="10.7" y="0" class="st22 st23 st24">d</tspan><tspan x="15.8" y="0" class="st22 st23 st24">,</tspan><tspan x="17.8" y="0" class="st22 st23 st24"> </tspan><tspan x="19.8" y="0" class="st22 st23 st24">desp</tspan><tspan x="38.4" y="0" class="st22 st23 st24">i</tspan><tspan x="40.6" y="0" class="st22 st23 st24">te</tspan><tspan x="48.3" y="0" class="st22 st23 st24"> </tspan><tspan x="50.3" y="0" class="st22 st23 st24">tem</tspan><tspan x="65.5" y="0" class="st22 st23 st24">p</tspan><tspan x="70.7" y="0" class="st22 st23 st24">tati</tspan><tspan x="83.5" y="0" class="st22 st23 st24">o</tspan><tspan x="88.5" y="0" class="st22 st23 st24">ns</tspan><tspan x="97.2" y="0" class="st22 st23 st24">, </tspan><tspan x="101.2" y="0" class="st22 st23 st24">we</tspan><tspan x="112.5" y="0" class="st22 st23 st24"> b</tspan><tspan x="119.7" y="0" class="st22 st23 st24">ehave</tspan><tspan x="142.8" y="0" class="st22 st23 st24">d.</tspan><tspan x="149.9" y="0" class="st22 st23 st24"> </tspan></text>
		</g>
		<g class="st1">
			<text transform="matrix(1 0 0 1 203.1895 666.1104)" class="st22 st27 st24">u</text>
		</g>
		<g class="st1">
			<defs>
				<rect id="SVGID_53_" x="44.9" y="66.1" width="256.4" height="288"/>
			</defs>
			<clipPath id="SVGID_8_">
				<use xlink:href="#SVGID_53_"  style="overflow:visible;"/>
			</clipPath>
			<g style="clip-path:url(#SVGID_8_);">
				<defs>
					<rect id="SVGID_55_" x="43.3" y="65" width="259" height="290.5"/>
				</defs>
				<clipPath id="SVGID_10_">
					<use xlink:href="#SVGID_55_"  style="overflow:visible;"/>
				</clipPath>
				<g transform="matrix(1 0 0 1 0 0)" class="st4">
					
						<image style="overflow:visible;" width="288" height="323" xlink:href="D305A22976E69EBF.jpg"  transform="matrix(0.8994 0 0 0.8994 43.3403 64.9905)">
					</image>
				</g>
			</g>
		</g>
		<g class="st1">
			<text transform="matrix(1 0 0 1 44.9004 690.1104)"><tspan x="0" y="0" class="st22 st29 st30">T</tspan><tspan x="3.7" y="0" class="st22 st29 st30">h</tspan><tspan x="7.8" y="0" class="st22 st29 st30">is page:</tspan><tspan x="31.5" y="0" class="st22 st29 st30"> </tspan><tspan x="33" y="0" class="st22 st29 st30">The </tspan><tspan x="46.2" y="0" class="st22 st29 st30">l</tspan><tspan x="48.1" y="0" class="st22 st29 st30">i</tspan><tspan x="49.9" y="0" class="st22 st29 st30">b</tspan><tspan x="54.1" y="0" class="st22 st29 st30">r</tspan><tspan x="56.5" y="0" class="st22 st29 st30">a</tspan><tspan x="60.1" y="0" class="st22 st29 st30">r</tspan><tspan x="62.8" y="0" class="st22 st29 st30">y</tspan><tspan x="65.7" y="0" class="st22 st29 st30">, or </tspan><tspan x="77.2" y="0" class="st22 st29 st30">E</tspan><tspan x="80.9" y="0" class="st22 st29 st30">ast </tspan><tspan x="91.6" y="0" class="st22 st29 st30">r</tspan><tspan x="94" y="0" class="st22 st29 st30">o</tspan><tspan x="98.1" y="0" class="st22 st29 st30">o</tspan><tspan x="102.1" y="0" class="st22 st29 st30">m</tspan><tspan x="108.2" y="0" class="st22 st29 st30">,</tspan><tspan x="109.8" y="0" class="st22 st29 st30"> has a deco</tspan><tspan x="144.3" y="0" class="st22 st29 st30">r</tspan><tspan x="146.8" y="0" class="st22 st29 st30">ati</tspan><tspan x="154.7" y="0" class="st22 st29 st30">v</tspan><tspan x="158.2" y="0" class="st22 st29 st30">e</tspan><tspan x="161.9" y="0" class="st22 st29 st30"> cei</tspan><tspan x="172.5" y="0" class="st22 st29 st30">l</tspan><tspan x="174.3" y="0" class="st22 st29 st30">ing b</tspan><tspan x="190.2" y="0" class="st22 st29 st30">y</tspan><tspan x="193.7" y="0" class="st22 st29 st30"> n</tspan><tspan x="199.5" y="0" class="st22 st29 st30">o</tspan><tspan x="203.5" y="0" class="st22 st29 st30">t</tspan><tspan x="206.1" y="0" class="st22 st29 st30">e</tspan><tspan x="209.8" y="0" class="st22 st29 st30">d m</tspan><tspan x="221.6" y="0" class="st22 st29 st30">u</tspan><tspan x="225.7" y="0" class="st22 st29 st30">r</tspan><tspan x="228.1" y="0" class="st22 st29 st30">alis</tspan><tspan x="238.4" y="0" class="st22 st29 st30">t </tspan></text>
		</g>
		<g class="st1">
			<text transform="matrix(1 0 0 1 44.9004 702.1104)"><tspan x="0" y="0" class="st22 st29 st30">H</tspan><tspan x="4.7" y="0" class="st22 st29 st30">e</tspan><tspan x="8.4" y="0" class="st22 st29 st30">n</tspan><tspan x="12.4" y="0" class="st22 st29 st30">r</tspan><tspan x="15.1" y="0" class="st22 st29 st30">y</tspan><tspan x="18.5" y="0" class="st22 st29 st30"> </tspan><tspan x="20.2" y="0" class="st22 st29 st30">S</tspan><tspan x="23.8" y="0" class="st22 st29 st30">idd</tspan><tspan x="33.8" y="0" class="st22 st29 st30">o</tspan><tspan x="37.7" y="0" class="st22 st29 st30">ns M</tspan><tspan x="52.1" y="0" class="st22 st29 st30">o</tspan><tspan x="56" y="0" class="st22 st29 st30">w</tspan><tspan x="61.3" y="0" class="st22 st29 st30">b</tspan><tspan x="65.5" y="0" class="st22 st29 st30">r</tspan><tspan x="67.8" y="0" class="st22 st29 st30">a</tspan><tspan x="71.4" y="0" class="st22 st29 st30">y</tspan><tspan x="74.8" y="0" class="st22 st29 st30"> (185</tspan><tspan x="89.8" y="0" class="st22 st29 st30">8</tspan><tspan x="93.6" y="0" class="st22 st29 st30">–1</tspan><tspan x="101" y="0" class="st22 st29 st30">9</tspan><tspan x="104.7" y="0" class="st22 st29 st30">2</tspan><tspan x="108.5" y="0" class="st22 st29 st30">8</tspan><tspan x="112.2" y="0" class="st22 st29 st30">).</tspan><tspan x="116" y="0" class="st22 st29 st30"> </tspan><tspan x="117.6" y="0" class="st22 st29 st30">O</tspan><tspan x="122.6" y="0" class="st22 st29 st30">pposite pag</tspan><tspan x="159.1" y="0" class="st22 st29 st30">e</tspan><tspan x="162.7" y="0" class="st22 st29 st30">:</tspan><tspan x="164.3" y="0" class="st22 st29 st30"> </tspan><tspan x="165.8" y="0" class="st22 st29 st30">Th</tspan><tspan x="173.5" y="0" class="st22 st29 st30">e</tspan><tspan x="177.2" y="0" class="st22 st29 st30"> </tspan><tspan x="178.8" y="0" class="st22 st29 st30">r</tspan><tspan x="181.2" y="0" class="st22 st29 st30">oom</tspan><tspan x="195.1" y="0" class="st22 st29 st30">’</tspan><tspan x="196.2" y="0" class="st22 st29 st30">s g</tspan><tspan x="204.9" y="0" class="st22 st29 st30">r</tspan><tspan x="207.2" y="0" class="st22 st29 st30">and fi</tspan><tspan x="224.4" y="0" class="st22 st29 st30">r</tspan><tspan x="226.7" y="0" class="st22 st29 st30">e</tspan><tspan x="230.4" y="0" class="st22 st29 st30">p</tspan><tspan x="234.5" y="0" class="st22 st29 st30">l</tspan><tspan x="236.3" y="0" class="st22 st29 st30">ac</tspan><tspan x="243.1" y="0" class="st22 st29 st30">e </tspan></text>
		</g>
		<g class="st1">
			<text transform="matrix(1 0 0 1 44.9004 714.1104)"><tspan x="0" y="0" class="st22 st29 st30">and six</tspan><tspan x="21.3" y="0" class="st22 st29 st30">tee</tspan><tspan x="31.1" y="0" class="st22 st29 st30">n</tspan><tspan x="35.1" y="0" class="st22 st29 st30">th-</tspan><tspan x="43.8" y="0" class="st22 st29 st30">c</tspan><tspan x="47.1" y="0" class="st22 st29 st30">e</tspan><tspan x="50.7" y="0" class="st22 st29 st30">ntu</tspan><tspan x="61.2" y="0" class="st22 st29 st30">r</tspan><tspan x="63.9" y="0" class="st22 st29 st30">y</tspan><tspan x="67.3" y="0" class="st22 st29 st30"> </tspan><tspan x="68.9" y="0" class="st22 st29 st30">t</tspan><tspan x="71.4" y="0" class="st22 st29 st30">ap</tspan><tspan x="79" y="0" class="st22 st29 st30">e</tspan><tspan x="82.7" y="0" class="st22 st29 st30">st</tspan><tspan x="88" y="0" class="st22 st29 st30">r</tspan><tspan x="90.7" y="0" class="st22 st29 st30">y</tspan><tspan x="93.5" y="0" class="st22 st29 st30">, s</tspan><tspan x="99.6" y="0" class="st22 st29 st30">u</tspan><tspan x="103.6" y="0" class="st22 st29 st30">r</tspan><tspan x="106" y="0" class="st22 st29 st30">r</tspan><tspan x="108.4" y="0" class="st22 st29 st30">ou</tspan><tspan x="116.4" y="0" class="st22 st29 st30">nd</tspan><tspan x="124.5" y="0" class="st22 st29 st30">e</tspan><tspan x="128.1" y="0" class="st22 st29 st30">d b</tspan><tspan x="137.9" y="0" class="st22 st29 st30">y</tspan><tspan x="141.4" y="0" class="st22 st29 st30"> disp</tspan><tspan x="155.9" y="0" class="st22 st29 st30">l</tspan><tspan x="157.7" y="0" class="st22 st29 st30">ay cas</tspan><tspan x="176" y="0" class="st22 st29 st30">es</tspan><tspan x="182.5" y="0" class="st22 st29 st30"> </tspan><tspan x="184.1" y="0" class="st22 st29 st30">th</tspan><tspan x="190.6" y="0" class="st22 st29 st30">a</tspan><tspan x="194.1" y="0" class="st22 st29 st30">t</tspan><tspan x="196.6" y="0" class="st22 st29 st30"> ex</tspan><tspan x="205.2" y="0" class="st22 st29 st30">h</tspan><tspan x="209.2" y="0" class="st22 st29 st30">ibi</tspan><tspan x="216.9" y="0" class="st22 st29 st30">t</tspan><tspan x="219.4" y="0" class="st22 st29 st30"> s</tspan><tspan x="223.9" y="0" class="st22 st29 st30">o</tspan><tspan x="227.9" y="0" class="st22 st29 st30">m</tspan><tspan x="233.8" y="0" class="st22 st29 st30">e </tspan></text>
		</g>
		<g class="st1">
			<text transform="matrix(1 0 0 1 44.9004 726.1104)"><tspan x="0" y="0" class="st22 st29 st30">of</tspan><tspan x="6.4" y="0" class="st22 st29 st30"> </tspan><tspan x="8.2" y="0" class="st22 st29 st30">t</tspan><tspan x="10.7" y="0" class="st22 st29 st30">h</tspan><tspan x="14.9" y="0" class="st22 st29 st30">e</tspan><tspan x="18.6" y="0" class="st22 st29 st30"> Mo</tspan><tspan x="30.4" y="0" class="st22 st29 st30">r</tspan><tspan x="32.9" y="0" class="st22 st29 st30">ga</tspan><tspan x="40.7" y="0" class="st22 st29 st30">n</tspan><tspan x="44.7" y="0" class="st22 st29 st30">’</tspan><tspan x="45.9" y="0" class="st22 st29 st30">s m</tspan><tspan x="56.8" y="0" class="st22 st29 st30">o</tspan><tspan x="60.9" y="0" class="st22 st29 st30">s</tspan><tspan x="63.9" y="0" class="st22 st29 st30">t</tspan><tspan x="66.5" y="0" class="st22 st29 st30"> </tspan><tspan x="68.2" y="0" class="st22 st29 st30">v</tspan><tspan x="71.7" y="0" class="st22 st29 st30">a</tspan><tspan x="75.4" y="0" class="st22 st29 st30">l</tspan><tspan x="77.3" y="0" class="st22 st29 st30">u</tspan><tspan x="81.4" y="0" class="st22 st29 st30">e</tspan><tspan x="85.2" y="0" class="st22 st29 st30">d o</tspan><tspan x="95.2" y="0" class="st22 st29 st30">b</tspan><tspan x="99.5" y="0" class="st22 st29 st30">j</tspan><tspan x="101.4" y="0" class="st22 st29 st30">e</tspan><tspan x="105.2" y="0" class="st22 st29 st30">c</tspan><tspan x="108.6" y="0" class="st22 st29 st30">t</tspan><tspan x="111.2" y="0" class="st22 st29 st30">s </tspan><tspan x="116" y="0" class="st22 st29 st30">f</tspan><tspan x="118.3" y="0" class="st22 st29 st30">r</tspan><tspan x="120.8" y="0" class="st22 st29 st30">om i</tspan><tspan x="134.6" y="0" class="st22 st29 st30">t</tspan><tspan x="137.2" y="0" class="st22 st29 st30">s medie</tspan><tspan x="161.8" y="0" class="st22 st29 st30">v</tspan><tspan x="165.3" y="0" class="st22 st29 st30">al ho</tspan><tspan x="180.8" y="0" class="st22 st29 st30">l</tspan><tspan x="182.7" y="0" class="st22 st29 st30">dings and </tspan><tspan x="215.7" y="0" class="st22 st29 st30">r</tspan><tspan x="218.2" y="0" class="st22 st29 st30">e</tspan><tspan x="222" y="0" class="st22 st29 st30">n</tspan><tspan x="226.1" y="0" class="st22 st29 st30">o</tspan><tspan x="230.1" y="0" class="st22 st29 st30">wn</tspan><tspan x="239.7" y="0" class="st22 st29 st30">e</tspan><tspan x="243.5" y="0" class="st22 st29 st30">d </tspan></text>
		</g>
		<g class="st1">
			<text transform="matrix(1 0 0 1 44.9004 738.1104)"><tspan x="0" y="0" class="st22 st29 st30">c</tspan><tspan x="3.3" y="0" class="st22 st29 st30">ol</tspan><tspan x="9.2" y="0" class="st22 st29 st30">l</tspan><tspan x="11.1" y="0" class="st22 st29 st30">e</tspan><tspan x="14.8" y="0" class="st22 st29 st30">cti</tspan><tspan x="22.5" y="0" class="st22 st29 st30">o</tspan><tspan x="26.6" y="0" class="st22 st29 st30">ns o</tspan><tspan x="39.4" y="0" class="st22 st29 st30">f</tspan><tspan x="41.7" y="0" class="st22 st29 st30"> </tspan><tspan x="43.4" y="0" class="st22 st29 st30">r</tspan><tspan x="45.8" y="0" class="st22 st29 st30">a</tspan><tspan x="49.4" y="0" class="st22 st29 st30">r</tspan><tspan x="51.8" y="0" class="st22 st29 st30">e</tspan><tspan x="55.5" y="0" class="st22 st29 st30"> </tspan><tspan x="57.2" y="0" class="st22 st29 st30">boo</tspan><tspan x="69.5" y="0" class="st22 st29 st30">ks and li</tspan><tspan x="94.9" y="0" class="st22 st29 st30">t</tspan><tspan x="97.4" y="0" class="st22 st29 st30">e</tspan><tspan x="101.1" y="0" class="st22 st29 st30">r</tspan><tspan x="103.5" y="0" class="st22 st29 st30">a</tspan><tspan x="107.1" y="0" class="st22 st29 st30">r</tspan><tspan x="109.9" y="0" class="st22 st29 st30">y</tspan><tspan x="112.7" y="0" class="st22 st29 st30">,</tspan><tspan x="114.4" y="0" class="st22 st29 st30"> hist</tspan><tspan x="127.5" y="0" class="st22 st29 st30">o</tspan><tspan x="131.6" y="0" class="st22 st29 st30">rical</tspan><tspan x="144.7" y="0" class="st22 st29 st30">,</tspan><tspan x="146.4" y="0" class="st22 st29 st30"> and music manuscripts</tspan><tspan x="219.8" y="0" class="st22 st29 st30">.</tspan></text>
		</g>
		<line style="clip-path:url(#SVGID_2_);fill:none;stroke:#FFFFFF;stroke-width:0.5;" x1="44.9" y1="676.1" x2="301.3" y2="676.1"/>
		<g class="st1">
			<text transform="matrix(1 0 0 1 44.9004 762.127)"><tspan x="0" y="0" class="st22 st32 st30 st25">00</tspan><tspan x="9.4" y="0" class="st22 st32 st30"> </tspan></text>
		</g>
		<g class="st1">
			<text transform="matrix(1 0 0 1 56.7227 762.127)"><tspan x="0" y="0" class="st22 st23 st33 st25">QU</tspan><tspan x="10.4" y="0" class="st22 st23 st33 st25">E</tspan><tspan x="14.6" y="0" class="st22 st23 st33 st25">S</tspan><tspan x="18.7" y="0" class="st22 st23 st33">T</tspan></text>
		</g>
	</g>
</g>
</svg>
