<?xml version="1.0" encoding="utf-8"?>
<!-- Generator: Adobe Illustrator 23.0.4, SVG Export Plug-In . SVG Version: 6.00 Build 0)  -->
<svg version="1.1" id="Layer_1" xmlns="http://www.w3.org/2000/svg" xmlns:xlink="http://www.w3.org/1999/xlink" x="0px" y="0px"
	 viewBox="0 0 585 783" style="enable-background:new 0 0 585 783;" xml:space="preserve">
<style type="text/css">
	.st0{clip-path:url(#SVGID_2_);fill:#362018;}
	.st1{clip-path:url(#SVGID_2_);}
	.st2{clip-path:url(#SVGID_2_);fill:#FFF22D;}
	.st3{clip-path:url(#SVGID_6_);}
	.st4{clip-path:url(#SVGID_10_);}
	.st5{clip-path:url(#SVGID_12_);}
	.st6{clip-path:url(#SVGID_16_);fill:#4C4731;}
	.st7{clip-path:url(#SVGID_16_);}
	.st8{clip-path:url(#SVGID_18_);}
	.st9{fill:#FFFFFF;}
	.st10{font-family:'SimonciniGaramond';}
	.st11{font-size:9px;}
	.st12{font-family:'MetaPlusBold-Italic';}
	.st13{font-size:7px;}
	.st14{clip-path:url(#SVGID_16_);fill:none;stroke:#FFFFFF;stroke-width:0.5;}
	.st15{font-family:'MetaPlusBlack-Roman';}
	.st16{letter-spacing:1;}
	.st17{font-size:6px;}
	.st18{clip-path:url(#SVGID_22_);}
	.st19{font-size:4.5px;}
	.st20{clip-path:url(#SVGID_24_);}
	.st21{clip-path:url(#SVGID_26_);}
	.st22{clip-path:url(#SVGID_30_);}
	.st23{clip-path:url(#SVGID_32_);}
	.st24{clip-path:url(#SVGID_38_);fill:#362018;}
	.st25{clip-path:url(#SVGID_38_);}
	.st26{clip-path:url(#SVGID_40_);}
	.st27{clip-path:url(#SVGID_44_);}
	.st28{clip-path:url(#SVGID_38_);fill:none;stroke:#FFFFFF;stroke-width:0.5;}
	.st29{clip-path:url(#SVGID_48_);fill:#4C4731;}
	.st30{clip-path:url(#SVGID_48_);}
	.st31{clip-path:url(#SVGID_50_);}
	.st32{clip-path:url(#SVGID_54_);}
	.st33{clip-path:url(#SVGID_48_);fill:none;stroke:#FFFFFF;stroke-width:0.5;}
	.st34{clip-path:url(#SVGID_58_);}
	.st35{clip-path:url(#SVGID_60_);}
</style>
<g>
	<g>
		<defs>
			<rect id="SVGID_15_" width="585" height="783"/>
		</defs>
		<clipPath id="SVGID_2_">
			<use xlink:href="#SVGID_15_"  style="overflow:visible;"/>
		</clipPath>
		<rect style="clip-path:url(#SVGID_2_);fill:#4C4731;" width="585" height="783"/>
		<g class="st1">
			<defs>
				<rect id="SVGID_17_" x="99" y="90.1" width="376.5" height="413.9"/>
			</defs>
			<clipPath id="SVGID_4_">
				<use xlink:href="#SVGID_17_"  style="overflow:visible;"/>
			</clipPath>
			<g style="clip-path:url(#SVGID_4_);">
				<defs>
					<rect id="SVGID_19_" x="97.3" y="88.5" width="379.8" height="417.1"/>
				</defs>
				<clipPath id="SVGID_6_">
					<use xlink:href="#SVGID_19_"  style="overflow:visible;"/>
				</clipPath>
				<g class="st3">
					
						<image style="overflow:visible;" width="356" height="391" xlink:href="D2E3F5F68EAD4D99.jpg"  transform="matrix(1.0668 0 0 1.0668 97.3339 88.5028)">
					</image>
				</g>
			</g>
		</g>
		<g class="st1">
			<text transform="matrix(1 0 0 1 143.5 582.1104)"><tspan x="0" y="0" class="st9 st10 st11">would</tspan><tspan x="23.7" y="0" class="st9 st10 st11"> </tspan><tspan x="26" y="0" class="st9 st10 st11">feel</tspan><tspan x="39.8" y="0" class="st9 st10 st11"> </tspan><tspan x="42" y="0" class="st9 st10 st11">their</tspan><tspan x="59.6" y="0" class="st9 st10 st11"> </tspan><tspan x="61.9" y="0" class="st9 st10 st11">poet</tspan><tspan x="79.4" y="0" class="st9 st10 st11">’</tspan><tspan x="80.6" y="0" class="st9 st10 st11">s</tspan><tspan x="84.2" y="0" class="st9 st10 st11"> </tspan><tspan x="86.4" y="0" class="st9 st10 st11">soul</tspan><tspan x="102" y="0" class="st9 st10 st11"> </tspan><tspan x="104.3" y="0" class="st9 st10 st11">inspired.</tspan><tspan x="136.6" y="0" class="st9 st10 st11"> </tspan><tspan x="138.8" y="0" class="st9 st10 st11">People</tspan><tspan x="164.8" y="0" class="st9 st10 st11"> </tspan><tspan x="167.1" y="0" class="st9 st10 st11">who</tspan><tspan x="183.7" y="0" class="st9 st10 st11"> </tspan><tspan x="185.9" y="0" class="st9 st10 st11">treasure</tspan><tspan x="216.7" y="0" class="st9 st10 st11"> </tspan><tspan x="219" y="0" class="st9 st10 st11">the</tspan><tspan x="231.4" y="0" class="st9 st10 st11"> </tspan><tspan x="233.7" y="0" class="st9 st10 st11">smell</tspan><tspan x="253.5" y="0" class="st9 st10 st11"> </tspan><tspan x="255.8" y="0" class="st9 st10 st11">of</tspan><tspan x="263.4" y="0" class="st9 st10 st11"> </tspan><tspan x="265.7" y="0" class="st9 st10 st11">bound </tspan></text>
		</g>
		<g class="st1">
			<text transform="matrix(1 0 0 1 143.5 594.1104)"><tspan x="0" y="0" class="st9 st10 st11">p</tspan><tspan x="5.3" y="0" class="st9 st10 st11">a</tspan><tspan x="9.8" y="0" class="st9 st10 st11">p</tspan><tspan x="15.1" y="0" class="st9 st10 st11">e</tspan><tspan x="19.8" y="0" class="st9 st10 st11">r</tspan><tspan x="22.9" y="0" class="st9 st10 st11"> </tspan><tspan x="24.9" y="0" class="st9 st10 st11">k</tspan><tspan x="29.3" y="0" class="st9 st10 st11">n</tspan><tspan x="34.5" y="0" class="st9 st10 st11">o</tspan><tspan x="39.6" y="0" class="st9 st10 st11">w</tspan><tspan x="46.4" y="0" class="st9 st10 st11"> </tspan><tspan x="48.4" y="0" class="st9 st10 st11">ho</tspan><tspan x="58.7" y="0" class="st9 st10 st11">w</tspan><tspan x="65.5" y="0" class="st9 st10 st11"> </tspan><tspan x="67.5" y="0" class="st9 st10 st11">magical</tspan><tspan x="98.3" y="0" class="st9 st10 st11"> </tspan><tspan x="100.3" y="0" class="st9 st10 st11">t</tspan><tspan x="103.5" y="0" class="st9 st10 st11">h</tspan><tspan x="108.6" y="0" class="st9 st10 st11">ese</tspan><tspan x="121.8" y="0" class="st9 st10 st11"> </tspan><tspan x="123.8" y="0" class="st9 st10 st11">p</tspan><tspan x="129.1" y="0" class="st9 st10 st11">laces</tspan><tspan x="148.5" y="0" class="st9 st10 st11"> </tspan><tspan x="150.6" y="0" class="st9 st10 st11">are</tspan><tspan x="162.9" y="0" class="st9 st10 st11">.</tspan><tspan x="164.9" y="0" class="st9 st10 st11"> </tspan><tspan x="166.9" y="0" class="st9 st10 st11">W</tspan><tspan x="174.1" y="0" class="st9 st10 st11">e</tspan><tspan x="178.8" y="0" class="st9 st10 st11"> </tspan><tspan x="180.8" y="0" class="st9 st10 st11">were</tspan><tspan x="200.1" y="0" class="st9 st10 st11"> </tspan><tspan x="202.1" y="0" class="st9 st10 st11">lucky</tspan><tspan x="222.6" y="0" class="st9 st10 st11"> </tspan><tspan x="224.6" y="0" class="st9 st10 st11">eno</tspan><tspan x="239.6" y="0" class="st9 st10 st11">u</tspan><tspan x="244.7" y="0" class="st9 st10 st11">gh</tspan><tspan x="255.1" y="0" class="st9 st10 st11"> </tspan><tspan x="257.2" y="0" class="st9 st10 st11">to</tspan><tspan x="265.4" y="0" class="st9 st10 st11"> </tspan><tspan x="267.5" y="0" class="st9 st10 st11">h</tspan><tspan x="272.6" y="0" class="st9 st10 st11">a</tspan><tspan x="277.1" y="0" class="st9 st10 st11">v</tspan><tspan x="281.6" y="0" class="st9 st10 st11">e</tspan><tspan x="286.3" y="0" class="st9 st10 st11"> </tspan><tspan x="288.4" y="0" class="st9 st10 st11">a </tspan></text>
		</g>
		<g class="st1">
			<text transform="matrix(1 0 0 1 143.5 606.1104)"><tspan x="0" y="0" class="st9 st10 st11">h</tspan><tspan x="5.2" y="0" class="st9 st10 st11">o</tspan><tspan x="10.3" y="0" class="st9 st10 st11">s</tspan><tspan x="14" y="0" class="st9 st10 st11">tes</tspan><tspan x="25.6" y="0" class="st9 st10 st11">s</tspan><tspan x="29.3" y="0" class="st9 st10 st11"> </tspan><tspan x="31.4" y="0" class="st9 st10 st11">w</tspan><tspan x="38.2" y="0" class="st9 st10 st11">h</tspan><tspan x="43.4" y="0" class="st9 st10 st11">o </tspan><tspan x="50.6" y="0" class="st9 st10 st11">c</tspan><tspan x="54.8" y="0" class="st9 st10 st11">o</tspan><tspan x="59.9" y="0" class="st9 st10 st11">u</tspan><tspan x="65.1" y="0" class="st9 st10 st11">l</tspan><tspan x="67.4" y="0" class="st9 st10 st11">d </tspan><tspan x="74.7" y="0" class="st9 st10 st11">o</tspan><tspan x="79.8" y="0" class="st9 st10 st11">ffer</tspan><tspan x="93" y="0" class="st9 st10 st11"> </tspan><tspan x="95.1" y="0" class="st9 st10 st11">thi</tspan><tspan x="105.7" y="0" class="st9 st10 st11">s</tspan><tspan x="109.5" y="0" class="st9 st10 st11"> impo</tspan><tspan x="132" y="0" class="st9 st10 st11">ss</tspan><tspan x="139.4" y="0" class="st9 st10 st11">ible</tspan><tspan x="154" y="0" class="st9 st10 st11"> </tspan><tspan x="156.1" y="0" class="st9 st10 st11">setti</tspan><tspan x="173.1" y="0" class="st9 st10 st11">n</tspan><tspan x="178.3" y="0" class="st9 st10 st11">g</tspan><tspan x="183.5" y="0" class="st9 st10 st11"> </tspan><tspan x="185.6" y="0" class="st9 st10 st11">f</tspan><tspan x="188.4" y="0" class="st9 st10 st11">o</tspan><tspan x="193.5" y="0" class="st9 st10 st11">r</tspan><tspan x="196.6" y="0" class="st9 st10 st11"> </tspan><tspan x="198.7" y="0" class="st9 st10 st11">t</tspan><tspan x="201.9" y="0" class="st9 st10 st11">h</tspan><tspan x="207" y="0" class="st9 st10 st11">e</tspan><tspan x="211.7" y="0" class="st9 st10 st11"> </tspan><tspan x="213.8" y="0" class="st9 st10 st11">eve</tspan><tspan x="227.7" y="0" class="st9 st10 st11">n</tspan><tspan x="232.9" y="0" class="st9 st10 st11">ing</tspan><tspan x="245.5" y="0" class="st9 st10 st11">. </tspan></text>
		</g>
		<g class="st1">
			<text transform="matrix(1 0 0 1 152.5 618.1104)"><tspan x="0" y="0" class="st9 st10 st11">Located</tspan><tspan x="30.1" y="0" class="st9 st10 st11"> </tspan><tspan x="31.6" y="0" class="st9 st10 st11">at</tspan><tspan x="38.9" y="0" class="st9 st10 st11"> </tspan><tspan x="40.4" y="0" class="st9 st10 st11">225</tspan><tspan x="54.2" y="0" class="st9 st10 st11"> </tspan><tspan x="55.7" y="0" class="st9 st10 st11">Madison</tspan><tspan x="87.9" y="0" class="st9 st10 st11"> </tspan><tspan x="89.4" y="0" class="st9 st10 st11">A</tspan><tspan x="94.1" y="0" class="st9 st10 st11">venue,</tspan><tspan x="119.2" y="0" class="st9 st10 st11"> </tspan><tspan x="120.7" y="0" class="st9 st10 st11">the</tspan><tspan x="133.2" y="0" class="st9 st10 st11"> </tspan><tspan x="134.6" y="0" class="st9 st10 st11">Morgan</tspan><tspan x="164.1" y="0" class="st9 st10 st11"> </tspan><tspan x="165.6" y="0" class="st9 st10 st11">Library</tspan><tspan x="191.5" y="0" class="st9 st10 st11"> </tspan><tspan x="192.9" y="0" class="st9 st10 st11">&amp;</tspan><tspan x="198.4" y="0" class="st9 st10 st11"> </tspan><tspan x="199.9" y="0" class="st9 st10 st11">Museum</tspan><tspan x="232.6" y="0" class="st9 st10 st11"> </tspan><tspan x="234" y="0" class="st9 st10 st11">was</tspan><tspan x="248.6" y="0" class="st9 st10 st11"> </tspan><tspan x="250" y="0" class="st9 st10 st11">found</tspan></text>
		</g>
		<g class="st1">
			<text transform="matrix(1 0 0 1 428.665 618.1104)" class="st9 st10 st11">-</text>
		</g>
		<g class="st1">
			<text transform="matrix(1 0 0 1 143.5 630.1104)"><tspan x="0" y="0" class="st9 st10 st11">ed</tspan><tspan x="9.6" y="0" class="st9 st10 st11"> </tspan><tspan x="12.2" y="0" class="st9 st10 st11">upon</tspan><tspan x="32.2" y="0" class="st9 st10 st11"> </tspan><tspan x="34.8" y="0" class="st9 st10 st11">the</tspan><tspan x="47.3" y="0" class="st9 st10 st11"> </tspan><tspan x="49.9" y="0" class="st9 st10 st11">vast</tspan><tspan x="65.1" y="0" class="st9 st10 st11"> </tspan><tspan x="67.7" y="0" class="st9 st10 st11">collections</tspan><tspan x="108.1" y="0" class="st9 st10 st11"> </tspan><tspan x="110.7" y="0" class="st9 st10 st11">of</tspan><tspan x="118.2" y="0" class="st9 st10 st11"> </tspan><tspan x="120.8" y="0" class="st9 st10 st11">ﬁnancier</tspan><tspan x="153.4" y="0" class="st9 st10 st11"> </tspan><tspan x="156" y="0" class="st9 st10 st11">John</tspan><tspan x="174.3" y="0" class="st9 st10 st11"> </tspan><tspan x="176.9" y="0" class="st9 st10 st11">Pierpont</tspan><tspan x="209.3" y="0" class="st9 st10 st11"> </tspan><tspan x="211.9" y="0" class="st9 st10 st11">Morgan,</tspan><tspan x="243.2" y="0" class="st9 st10 st11"> </tspan><tspan x="245.8" y="0" class="st9 st10 st11">who</tspan><tspan x="262.4" y="0" class="st9 st10 st11"> </tspan><tspan x="265" y="0" class="st9 st10 st11">luckily </tspan></text>
		</g>
		<g class="st1">
			<text transform="matrix(1 0 0 1 143.5 642.1104)"><tspan x="0" y="0" class="st9 st10 st11">had</tspan><tspan x="14.4" y="0" class="st9 st10 st11"> </tspan><tspan x="16.4" y="0" class="st9 st10 st11">a</tspan><tspan x="20.8" y="0" class="st9 st10 st11"> </tspan><tspan x="22.8" y="0" class="st9 st10 st11">sharp-eyed</tspan><tspan x="64.9" y="0" class="st9 st10 st11"> </tspan><tspan x="66.9" y="0" class="st9 st10 st11">curator</tspan><tspan x="94" y="0" class="st9 st10 st11"> </tspan><tspan x="96" y="0" class="st9 st10 st11">in</tspan><tspan x="103.1" y="0" class="st9 st10 st11"> </tspan><tspan x="105.2" y="0" class="st9 st10 st11">his</tspan><tspan x="115.8" y="0" class="st9 st10 st11"> </tspan><tspan x="117.8" y="0" class="st9 st10 st11">personal</tspan><tspan x="150.4" y="0" class="st9 st10 st11"> </tspan><tspan x="152.4" y="0" class="st9 st10 st11">librarian,</tspan><tspan x="185.3" y="0" class="st9 st10 st11"> </tspan><tspan x="187.3" y="0" class="st9 st10 st11">Belle</tspan><tspan x="205.4" y="0" class="st9 st10 st11"> </tspan><tspan x="207.5" y="0" class="st9 st10 st11">da</tspan><tspan x="216.9" y="0" class="st9 st10 st11"> </tspan><tspan x="218.9" y="0" class="st9 st10 st11">Costa</tspan><tspan x="240" y="0" class="st9 st10 st11"> </tspan><tspan x="242" y="0" class="st9 st10 st11">Greene.</tspan><tspan x="271.1" y="0" class="st9 st10 st11"> </tspan><tspan x="273.1" y="0" class="st9 st10 st11">For </tspan></text>
		</g>
		<g class="st1">
			<text transform="matrix(1 0 0 1 143.5 654.1104)"><tspan x="0" y="0" class="st9 st10 st11">several</tspan><tspan x="26.3" y="0" class="st9 st10 st11"> </tspan><tspan x="29.1" y="0" class="st9 st10 st11">decades,</tspan><tspan x="62" y="0" class="st9 st10 st11"> </tspan><tspan x="64.8" y="0" class="st9 st10 st11">the</tspan><tspan x="77.2" y="0" class="st9 st10 st11"> </tspan><tspan x="80" y="0" class="st9 st10 st11">place</tspan><tspan x="100.1" y="0" class="st9 st10 st11"> </tspan><tspan x="102.9" y="0" class="st9 st10 st11">had</tspan><tspan x="117.3" y="0" class="st9 st10 st11"> </tspan><tspan x="120" y="0" class="st9 st10 st11">the</tspan><tspan x="132.5" y="0" class="st9 st10 st11"> </tspan><tspan x="135.2" y="0" class="st9 st10 st11">atmosphere</tspan><tspan x="180.6" y="0" class="st9 st10 st11"> </tspan><tspan x="183.4" y="0" class="st9 st10 st11">of</tspan><tspan x="191" y="0" class="st9 st10 st11"> </tspan><tspan x="193.7" y="0" class="st9 st10 st11">someone</tspan><tspan x="228.7" y="0" class="st9 st10 st11">’</tspan><tspan x="229.9" y="0" class="st9 st10 st11">s</tspan><tspan x="233.4" y="0" class="st9 st10 st11"> </tspan><tspan x="236.2" y="0" class="st9 st10 st11">fantastical</tspan><tspan x="274.6" y="0" class="st9 st10 st11"> </tspan><tspan x="277.3" y="0" class="st9 st10 st11">attic, </tspan></text>
		</g>
		<g class="st1">
			<text transform="matrix(1 0 0 1 143.5 666.1104)"><tspan x="0" y="0" class="st9 st10 st11">with</tspan><tspan x="16.7" y="0" class="st9 st10 st11"> </tspan><tspan x="18.9" y="0" class="st9 st10 st11">warrens</tspan><tspan x="48.9" y="0" class="st9 st10 st11"> </tspan><tspan x="51.1" y="0" class="st9 st10 st11">of</tspan><tspan x="58.6" y="0" class="st9 st10 st11"> </tspan><tspan x="60.9" y="0" class="st9 st10 st11">unconnected</tspan><tspan x="110.9" y="0" class="st9 st10 st11"> </tspan><tspan x="113.1" y="0" class="st9 st10 st11">buildings</tspan><tspan x="148.2" y="0" class="st9 st10 st11"> </tspan><tspan x="150.4" y="0" class="st9 st10 st11">holding</tspan><tspan x="179.7" y="0" class="st9 st10 st11"> </tspan><tspan x="181.9" y="0" class="st9 st10 st11">disjointed</tspan><tspan x="219.5" y="0" class="st9 st10 st11"> </tspan><tspan x="221.7" y="0" class="st9 st10 st11">groups</tspan><tspan x="248.3" y="0" class="st9 st10 st11"> </tspan><tspan x="250.5" y="0" class="st9 st10 st11">of</tspan><tspan x="258.1" y="0" class="st9 st10 st11"> </tspan><tspan x="260.3" y="0" class="st9 st10 st11">priceless </tspan></text>
		</g>
		<g class="st1">
			<text transform="matrix(1 0 0 1 143.5 678.1104)"><tspan x="0" y="0" class="st9 st10 st11">prints,</tspan><tspan x="23.6" y="0" class="st9 st10 st11"> </tspan><tspan x="25.9" y="0" class="st9 st10 st11">books,</tspan><tspan x="50.6" y="0" class="st9 st10 st11"> </tspan><tspan x="52.9" y="0" class="st9 st10 st11">and</tspan><tspan x="67.3" y="0" class="st9 st10 st11"> </tspan><tspan x="69.7" y="0" class="st9 st10 st11">drawings.</tspan><tspan x="106.2" y="0" class="st9 st10 st11"> </tspan><tspan x="108.5" y="0" class="st9 st10 st11">This</tspan><tspan x="123.7" y="0" class="st9 st10 st11"> </tspan><tspan x="126" y="0" class="st9 st10 st11">was</tspan><tspan x="140.5" y="0" class="st9 st10 st11"> </tspan><tspan x="142.9" y="0" class="st9 st10 st11">the</tspan><tspan x="155.4" y="0" class="st9 st10 st11"> </tspan><tspan x="157.7" y="0" class="st9 st10 st11">antithesis</tspan><tspan x="193.9" y="0" class="st9 st10 st11"> </tspan><tspan x="196.2" y="0" class="st9 st10 st11">of</tspan><tspan x="203.8" y="0" class="st9 st10 st11"> </tspan><tspan x="206.1" y="0" class="st9 st10 st11">museums</tspan><tspan x="242.7" y="0" class="st9 st10 st11"> </tspan><tspan x="245" y="0" class="st9 st10 st11">like</tspan><tspan x="258" y="0" class="st9 st10 st11"> </tspan><tspan x="260.3" y="0" class="st9 st10 st11">the</tspan><tspan x="272.8" y="0" class="st9 st10 st11"> </tspan><tspan x="275.2" y="0" class="st9 st10 st11">me</tspan></text>
		</g>
		<g class="st1">
			<text transform="matrix(1 0 0 1 428.665 678.1104)" class="st9 st10 st11">-</text>
		</g>
		<g class="st1">
			<text transform="matrix(1 0 0 1 143.5 690.1104)"><tspan x="0" y="0" class="st9 st10 st11">ticulously</tspan><tspan x="36" y="0" class="st9 st10 st11"> </tspan><tspan x="37.6" y="0" class="st9 st10 st11">planned</tspan><tspan x="68.8" y="0" class="st9 st10 st11"> </tspan><tspan x="70.4" y="0" class="st9 st10 st11">Barnes</tspan><tspan x="95.6" y="0" class="st9 st10 st11"> </tspan><tspan x="97.2" y="0" class="st9 st10 st11">Foundation,</tspan><tspan x="142.7" y="0" class="st9 st10 st11"> </tspan><tspan x="144.3" y="0" class="st9 st10 st11">but</tspan><tspan x="157.4" y="0" class="st9 st10 st11"> </tspan><tspan x="159" y="0" class="st9 st10 st11">the</tspan><tspan x="171.5" y="0" class="st9 st10 st11"> </tspan><tspan x="173" y="0" class="st9 st10 st11">Morgan</tspan><tspan x="202.5" y="0" class="st9 st10 st11"> </tspan><tspan x="204.1" y="0" class="st9 st10 st11">man</tspan><tspan x="221" y="0" class="st9 st10 st11">a</tspan><tspan x="225.5" y="0" class="st9 st10 st11">ged</tspan><tspan x="240.6" y="0" class="st9 st10 st11"> </tspan><tspan x="242.4" y="0" class="st9 st10 st11">t</tspan><tspan x="245.5" y="0" class="st9 st10 st11">o</tspan><tspan x="250.7" y="0" class="st9 st10 st11"> </tspan><tspan x="252.4" y="0" class="st9 st10 st11">p</tspan><tspan x="257.7" y="0" class="st9 st10 st11">r</tspan><tspan x="260.8" y="0" class="st9 st10 st11">oje</tspan><tspan x="273" y="0" class="st9 st10 st11">c</tspan><tspan x="277.2" y="0" class="st9 st10 st11">t</tspan><tspan x="280.4" y="0" class="st9 st10 st11"> </tspan><tspan x="282.1" y="0" class="st9 st10 st11">a</tspan><tspan x="286.7" y="0" class="st9 st10 st11">n </tspan></text>
		</g>
		<g class="st1">
			<text transform="matrix(1 0 0 1 143.5 714.1104)"><tspan x="0" y="0" class="st9 st12 st13">This pag</tspan><tspan x="26.5" y="0" class="st9 st12 st13">e</tspan><tspan x="30.2" y="0" class="st9 st12 st13">:</tspan><tspan x="31.9" y="0" class="st9 st12 st13"> </tspan><tspan x="33.5" y="0" class="st9 st12 st13">Th</tspan><tspan x="41.4" y="0" class="st9 st12 st13">e</tspan><tspan x="45.1" y="0" class="st9 st12 st13"> st</tspan><tspan x="52.4" y="0" class="st9 st12 st13">u</tspan><tspan x="56.5" y="0" class="st9 st12 st13">d</tspan><tspan x="60.7" y="0" class="st9 st12 st13">y</tspan><tspan x="63.6" y="0" class="st9 st12 st13">,</tspan><tspan x="65.3" y="0" class="st9 st12 st13"> </tspan><tspan x="67" y="0" class="st9 st12 st13">o</tspan><tspan x="71.1" y="0" class="st9 st12 st13">r</tspan><tspan x="73.6" y="0" class="st9 st12 st13"> </tspan><tspan x="75.2" y="0" class="st9 st12 st13">W</tspan><tspan x="81.1" y="0" class="st9 st12 st13">e</tspan><tspan x="84.8" y="0" class="st9 st12 st13">s</tspan><tspan x="87.8" y="0" class="st9 st12 st13">t</tspan><tspan x="90.4" y="0" class="st9 st12 st13"> </tspan><tspan x="92.1" y="0" class="st9 st12 st13">R</tspan><tspan x="96" y="0" class="st9 st12 st13">o</tspan><tspan x="100.1" y="0" class="st9 st12 st13">om</tspan><tspan x="110.2" y="0" class="st9 st12 st13">,</tspan><tspan x="111.9" y="0" class="st9 st12 st13"> has </tspan><tspan x="126.1" y="0" class="st9 st12 st13">be</tspan><tspan x="134.1" y="0" class="st9 st12 st13">en </tspan><tspan x="143.7" y="0" class="st9 st12 st13">e</tspan><tspan x="147.5" y="0" class="st9 st12 st13">nric</tspan><tspan x="159.4" y="0" class="st9 st12 st13">h</tspan><tspan x="163.5" y="0" class="st9 st12 st13">ed </tspan><tspan x="173.2" y="0" class="st9 st12 st13">b</tspan><tspan x="177.4" y="0" class="st9 st12 st13">y a su</tspan><tspan x="195.1" y="0" class="st9 st12 st13">b</tspan><tspan x="199.4" y="0" class="st9 st12 st13">stan</tspan><tspan x="212.7" y="0" class="st9 st12 st13">t</tspan><tspan x="215.3" y="0" class="st9 st12 st13">i</tspan><tspan x="217.1" y="0" class="st9 st12 st13">v</tspan><tspan x="220.7" y="0" class="st9 st12 st13">e disp</tspan><tspan x="239.5" y="0" class="st9 st12 st13">l</tspan><tspan x="241.3" y="0" class="st9 st12 st13">ay o</tspan><tspan x="254.3" y="0" class="st9 st12 st13">f</tspan><tspan x="256.6" y="0" class="st9 st12 st13"> work</tspan><tspan x="273.9" y="0" class="st9 st12 st13">s </tspan></text>
		</g>
		<g class="st1">
			<text transform="matrix(1 0 0 1 143.5 726.1104)"><tspan x="0" y="0" class="st9 st12 st13">f</tspan><tspan x="2.3" y="0" class="st9 st12 st13">r</tspan><tspan x="4.7" y="0" class="st9 st12 st13">o</tspan><tspan x="8.7" y="0" class="st9 st12 st13">m t</tspan><tspan x="19" y="0" class="st9 st12 st13">h</tspan><tspan x="23.1" y="0" class="st9 st12 st13">e co</tspan><tspan x="35.9" y="0" class="st9 st12 st13">l</tspan><tspan x="37.8" y="0" class="st9 st12 st13">l</tspan><tspan x="39.6" y="0" class="st9 st12 st13">e</tspan><tspan x="43.3" y="0" class="st9 st12 st13">c</tspan><tspan x="46.7" y="0" class="st9 st12 st13">t</tspan><tspan x="49.2" y="0" class="st9 st12 st13">ion </tspan><tspan x="60.9" y="0" class="st9 st12 st13">th</tspan><tspan x="67.5" y="0" class="st9 st12 st13">at s</tspan><tspan x="78.3" y="0" class="st9 st12 st13">u</tspan><tspan x="82.3" y="0" class="st9 st12 st13">r</tspan><tspan x="84.8" y="0" class="st9 st12 st13">r</tspan><tspan x="87.3" y="0" class="st9 st12 st13">ound</tspan><tspan x="103.6" y="0" class="st9 st12 st13">e</tspan><tspan x="107.3" y="0" class="st9 st12 st13">d Pierpont Mo</tspan><tspan x="151.6" y="0" class="st9 st12 st13">r</tspan><tspan x="154" y="0" class="st9 st12 st13">gan in the early 1900s</tspan><tspan x="222.3" y="0" class="st9 st12 st13">,</tspan><tspan x="223.9" y="0" class="st9 st12 st13"> wh</tspan><tspan x="235.1" y="0" class="st9 st12 st13">e</tspan><tspan x="238.8" y="0" class="st9 st12 st13">n h</tspan><tspan x="248.7" y="0" class="st9 st12 st13">e</tspan><tspan x="252.4" y="0" class="st9 st12 st13"> use</tspan><tspan x="264.8" y="0" class="st9 st12 st13">d </tspan></text>
		</g>
		<g class="st1">
			<text transform="matrix(1 0 0 1 420.5205 726.1104)" class="st9 st12 st13"> </text>
		</g>
		<g class="st1">
			<text transform="matrix(1 0 0 1 143.5 738.1104)"><tspan x="0" y="0" class="st9 st12 st13">the</tspan><tspan x="10.1" y="0" class="st9 st12 st13"> </tspan><tspan x="11.7" y="0" class="st9 st12 st13">r</tspan><tspan x="14.1" y="0" class="st9 st12 st13">oo</tspan><tspan x="22" y="0" class="st9 st12 st13">m </tspan><tspan x="29.6" y="0" class="st9 st12 st13">fo</tspan><tspan x="35.8" y="0" class="st9 st12 st13">r p</tspan><tspan x="44" y="0" class="st9 st12 st13">e</tspan><tspan x="47.6" y="0" class="st9 st12 st13">rs</tspan><tspan x="52.9" y="0" class="st9 st12 st13">o</tspan><tspan x="56.9" y="0" class="st9 st12 st13">nal </tspan><tspan x="67.9" y="0" class="st9 st12 st13">b</tspan><tspan x="72" y="0" class="st9 st12 st13">usin</tspan><tspan x="84.7" y="0" class="st9 st12 st13">e</tspan><tspan x="88.3" y="0" class="st9 st12 st13">ss</tspan><tspan x="94.2" y="0" class="st9 st12 st13">.</tspan><tspan x="95.8" y="0" class="st9 st12 st13"> </tspan><tspan x="97.4" y="0" class="st9 st12 st13">O</tspan><tspan x="102.3" y="0" class="st9 st12 st13">pposi</tspan><tspan x="119.2" y="0" class="st9 st12 st13">te</tspan><tspan x="125.3" y="0" class="st9 st12 st13"> pag</tspan><tspan x="138.7" y="0" class="st9 st12 st13">e</tspan><tspan x="142.3" y="0" class="st9 st12 st13">: Pi</tspan><tspan x="151.1" y="0" class="st9 st12 st13">e</tspan><tspan x="154.8" y="0" class="st9 st12 st13">rp</tspan><tspan x="161.3" y="0" class="st9 st12 st13">o</tspan><tspan x="165.3" y="0" class="st9 st12 st13">n</tspan><tspan x="169.3" y="0" class="st9 st12 st13">t</tspan><tspan x="171.8" y="0" class="st9 st12 st13">’</tspan><tspan x="172.9" y="0" class="st9 st12 st13">s p</tspan><tspan x="181.5" y="0" class="st9 st12 st13">o</tspan><tspan x="185.5" y="0" class="st9 st12 st13">r</tspan><tspan x="188.1" y="0" class="st9 st12 st13">t</tspan><tspan x="190.5" y="0" class="st9 st12 st13">ai</tspan><tspan x="195.8" y="0" class="st9 st12 st13">t</tspan><tspan x="198.3" y="0" class="st9 st12 st13"> </tspan><tspan x="199.9" y="0" class="st9 st12 st13">h</tspan><tspan x="203.9" y="0" class="st9 st12 st13">angs a</tspan><tspan x="223.6" y="0" class="st9 st12 st13">b</tspan><tspan x="227.7" y="0" class="st9 st12 st13">o</tspan><tspan x="231.5" y="0" class="st9 st12 st13">v</tspan><tspan x="235" y="0" class="st9 st12 st13">e</tspan><tspan x="238.6" y="0" class="st9 st12 st13"> </tspan><tspan x="240.2" y="0" class="st9 st12 st13">the</tspan><tspan x="250.3" y="0" class="st9 st12 st13"> man</tspan><tspan x="265.5" y="0" class="st9 st12 st13">t</tspan><tspan x="267.9" y="0" class="st9 st12 st13">e</tspan><tspan x="271.6" y="0" class="st9 st12 st13">l</tspan><tspan x="273.4" y="0" class="st9 st12 st13">. </tspan></text>
		</g>
		<line style="clip-path:url(#SVGID_2_);fill:none;stroke:#FFFFFF;stroke-width:0.5;" x1="143.5" y1="700.1" x2="432" y2="700.1"/>
		<g class="st1">
			<text transform="matrix(1 0 0 1 44.9004 762.127)"><tspan x="0" y="0" class="st9 st15 st13 st16">00</tspan><tspan x="9.4" y="0" class="st9 st15 st13"> </tspan></text>
		</g>
		<g class="st1">
			<text transform="matrix(1 0 0 1 56.7227 762.127)"><tspan x="0" y="0" class="st9 st10 st17 st16">QU</tspan><tspan x="10.4" y="0" class="st9 st10 st17 st16">E</tspan><tspan x="14.6" y="0" class="st9 st10 st17 st16">S</tspan><tspan x="18.7" y="0" class="st9 st10 st17">T</tspan></text>
		</g>
		<g class="st1">
			<defs>
				<rect id="SVGID_21_" width="585" height="783"/>
			</defs>
			<clipPath id="SVGID_8_">
				<use xlink:href="#SVGID_21_"  style="overflow:visible;"/>
			</clipPath>
			<g style="clip-path:url(#SVGID_8_);">
				<text transform="matrix(-6.123234e-17 -1 1 -6.123234e-17 561.064 738.1104)"><tspan x="0" y="0" class="st9 st12 st19">C</tspan><tspan x="3" y="0" class="st9 st12 st19">OU</tspan><tspan x="10" y="0" class="st9 st12 st19">R</tspan><tspan x="12.8" y="0" class="st9 st12 st19">T</tspan><tspan x="15.5" y="0" class="st9 st12 st19">ESY OF</tspan><tspan x="31.6" y="0" class="st9 st12 st19"> </tspan><tspan x="32.9" y="0" class="st9 st12 st19">THE MOR</tspan><tspan x="53.9" y="0" class="st9 st12 st19">G</tspan><tspan x="57.3" y="0" class="st9 st12 st19">AN </tspan><tspan x="65.5" y="0" class="st9 st12 st19">L</tspan><tspan x="68.1" y="0" class="st9 st12 st19">IBRA</tspan><tspan x="78.7" y="0" class="st9 st12 st19">R</tspan><tspan x="81.5" y="0" class="st9 st12 st19">Y</tspan></text>
			</g>
		</g>
	</g>
</g>
</svg>
